<svg xmlns="http://www.w3.org/2000/svg" width="2037.571" height="2665.969" viewBox="0 0 2037.571 2665.969">
  <g id="Group_1505" data-name="Group 1505" transform="translate(280.352 -2865.411)">
    <g id="Style" transform="translate(1455.756 3326.522) rotate(-120)">
      <rect id="Rectangle_3_Copy_7" data-name="Rectangle 3 Copy 7" width="409" height="83" rx="41.5" transform="translate(30 317.5) rotate(-30)" fill="#ffca00"/>
      <rect id="Rectangle_3_Copy_8" data-name="Rectangle 3 Copy 8" width="409" height="83" rx="41.5" transform="translate(0 204.5) rotate(-30)" fill="#fa7564"/>
      <rect id="Rectangle_3" data-name="Rectangle 3" width="409" height="83" rx="41.5" transform="translate(64 231.5) rotate(-30)" fill="#250f8a"/>
    </g>
    <g id="Style-2" data-name="Style" transform="translate(-281 3772)">
      <rect id="Rectangle_3_Copy_7-2" data-name="Rectangle 3 Copy 7" width="409" height="83" rx="41.5" transform="translate(41 328.5) rotate(-30)" fill="#ffca00"/>
      <rect id="Rectangle_3_Copy_8-2" data-name="Rectangle 3 Copy 8" width="409" height="83" rx="41.5" transform="translate(0.648 204.81) rotate(-30)" fill="#fa7564"/>
      <rect id="Rectangle_3-2" data-name="Rectangle 3" width="409" height="83" rx="41.5" transform="translate(64.648 231.81) rotate(-30)" fill="#250f8a"/>
    </g>
    <g id="Style-3" data-name="Style" transform="translate(-230 5131)">
      <rect id="Rectangle_3_Copy_7-3" data-name="Rectangle 3 Copy 7" width="409" height="83" rx="41.5" transform="translate(41 328.5) rotate(-30)" fill="#ffca00"/>
      <rect id="Rectangle_3_Copy_8-3" data-name="Rectangle 3 Copy 8" width="409" height="83" rx="41.5" transform="translate(0.648 204.81) rotate(-30)" fill="#fa7564"/>
      <rect id="Rectangle_3-3" data-name="Rectangle 3" width="409" height="83" rx="41.5" transform="translate(64.648 231.81) rotate(-30)" fill="#02ecf1"/>
    </g>
    <g id="Style-4" data-name="Style" transform="translate(1268 4221)">
      <rect id="Rectangle_3_Copy_7-4" data-name="Rectangle 3 Copy 7" width="409" height="83" rx="41.5" transform="translate(41 328.5) rotate(-30)" fill="#ffca00"/>
      <rect id="Rectangle_3_Copy_8-4" data-name="Rectangle 3 Copy 8" width="409" height="83" rx="41.5" transform="translate(0.648 204.81) rotate(-30)" fill="#fa7564"/>
      <rect id="Rectangle_3-4" data-name="Rectangle 3" width="409" height="83" rx="41.5" transform="translate(64.648 231.81) rotate(-30)" fill="#02ecf1"/>
    </g>
  </g>
</svg>
