<svg id="undraw_scrum_board_cesn" xmlns="http://www.w3.org/2000/svg" xmlns:xlink="http://www.w3.org/1999/xlink" width="669.5" height="475.736" viewBox="0 0 669.5 475.736">
  <defs>
    <linearGradient id="linear-gradient" x1="0.5" y1="1" x2="0.5" gradientUnits="objectBoundingBox">
      <stop offset="0" stop-color="gray" stop-opacity="0.251"/>
      <stop offset="0.54" stop-color="gray" stop-opacity="0.122"/>
      <stop offset="1" stop-color="gray" stop-opacity="0.102"/>
    </linearGradient>
    <linearGradient id="linear-gradient-2" y1="1" y2="0" xlink:href="#linear-gradient"/>
    <linearGradient id="linear-gradient-4" y1="1" y2="0" xlink:href="#linear-gradient"/>
    <linearGradient id="linear-gradient-5" y1="1" y2="0" xlink:href="#linear-gradient"/>
    <linearGradient id="linear-gradient-6" y1="1" y2="0" xlink:href="#linear-gradient"/>
    <linearGradient id="linear-gradient-23" x1="-1.293" y1="1" x2="-1.293" y2="0" xlink:href="#linear-gradient"/>
    <linearGradient id="linear-gradient-24" x1="0.419" y1="1" x2="0.419" y2="0" xlink:href="#linear-gradient"/>
  </defs>
  <path id="Path_1217" data-name="Path 1217" d="M680.59,337.08a181.976,181.976,0,0,1-4.019,38.249q-1.353,6.315-3.143,12.38-2.217,7.56-5.07,14.66-1.45,3.615-3.064,7.105a108.4,108.4,0,0,1-6.918,38.408c-8.157,21.6-23.01,39.221-41.6,49.515a77.874,77.874,0,0,1-37.885,9.868H138.184c-23.555,0-45.389-8.373-63.288-22.64a116.679,116.679,0,0,1-14.535-13.841,123.626,123.626,0,0,1-15.978-22.9,136.264,136.264,0,0,1-16.251-65.158C17.36,360.914,11.09,334.766,11.09,306.63c0-35.464,9.982-67.807,26.381-92.3a126.223,126.223,0,0,1,11.2-14.4,109.6,109.6,0,0,1,12.812-12.119,97.492,97.492,0,0,1,11.368-7.878c1.643-.966,3.291-1.876,4.968-2.723q2.205-1.137,4.468-2.12Q85,173.9,87.782,172.9t5.485-1.745a77.585,77.585,0,0,1,8.1-1.8q3.411-.588,6.821-.87,2.711-.222,5.468-.256h.995c2.024,0,4.036.1,6.031.25.21-.489.438-.978.648-1.467.8-1.751,1.62-3.49,2.45-5.207a.2.2,0,0,0,0-.045c.142-.3.284-.568.432-.881.671-1.4,1.37-2.785,2.086-4.161.33-.637.654-1.268.989-1.9.074-.148.148-.29.233-.438.341-.654.688-1.3,1.04-1.95q2.632-4.849,5.474-9.549c.165-.267.318-.534.483-.8.3-.483.568-.966.9-1.444.784-1.273,1.592-2.541,2.4-3.8.568-.887,1.137-1.773,1.751-2.649q2.217-3.325,4.547-6.565t4.843-6.48c.227-.3.455-.568.693-.881l2.427-3.052h0l.335-.415h0l.881-1.074c1.3-1.586,2.637-3.155,3.979-4.707a228.95,228.95,0,0,1,21.771-21.913c.3-.279.608-.568.91-.807,1.444-1.256,2.91-2.5,4.377-3.712A229.386,229.386,0,0,1,209.578,66.4c.6-.386,1.216-.762,1.836-1.137a229.566,229.566,0,0,1,24.152-12.846q6.821-3.138,13.784-5.809c3.081-1.171,6.173-2.274,9.305-3.32q7.264-2.4,14.711-4.348a230.178,230.178,0,0,1,44.473-7q6.821-.409,13.8-.409a231.019,231.019,0,0,1,66.5,9.714,2.319,2.319,0,0,0,2.063,1.239h1.916c.83.261,1.654.534,2.484.807q6.952,2.308,13.7,5.053l1.137.466a230.524,230.524,0,0,1,59.434,35.731q2,1.643,3.933,3.337,2.353-1.745,4.786-3.337a87.538,87.538,0,0,1,19.827-9.766,78.823,78.823,0,0,1,44.473-2.012c18.9,4.633,36.01,16.126,49.828,32.468a133.319,133.319,0,0,1,14.944,21.918c.313.568.625,1.137.927,1.705a154.36,154.36,0,0,1,9.515,21.913c.1.273.193.568.279.819a169.71,169.71,0,0,1,5.855,21.9c.068.375.148.756.216,1.137a180.694,180.694,0,0,1,2.8,21.913,4.747,4.747,0,0,0,.045.8q.358,5.718.364,11.562,0,5.229-.29,10.357c0,.381-.045.767-.074,1.137-.051.995-.125,1.989-.2,2.979a116.765,116.765,0,0,1,12.153,13.233q2.484,3.143,4.809,6.508a142.043,142.043,0,0,1,12.392,21.913C675.065,286.03,680.59,310.688,680.59,337.08Z" transform="translate(-11.09 -31.53)" fill="#02ecf1"/>
  <path id="Path_1218" data-name="Path 1218" d="M673.588,804.846c0,8.441-26.1,16.143-69,21.964H202.15c-42.887-5.821-68.989-13.523-68.989-21.964,0-6.429,15.143-12.431,41.324-17.5h0l.739-.142c7.389-1.415,15.649-2.757,24.675-4.013l.688-.1h0q10.743-1.484,22.856-2.8l.762-.08q4.672-.512,9.538-.989h0l1.251-.119c23.618-2.274,50.465-4.115,79.579-5.349h.034q6.116-.256,12.363-.477,6.946-.256,14.063-.455c3.621-.108,7.287-.2,10.965-.284h.085c16.592-.392,33.736-.6,51.266-.6,43.348,0,84.32,1.245,120.625,3.456h.1c5.582.341,11.062.7,16.4,1.086l4.547.335q9.044.682,17.621,1.444h0C629.91,784.246,673.588,793.927,673.588,804.846Z" transform="translate(-63.773 -351.074)" fill="#6c63ff" opacity="0.1"/>
  <path id="Path_1219" data-name="Path 1219" d="M302.269,135.076v17.24a2.331,2.331,0,0,1-2.331,2.336H268.38a228.943,228.943,0,0,1,21.771-21.913h9.794a2.331,2.331,0,0,1,2.325,2.336Z" transform="translate(-122.13 -75.21)" fill="none" stroke="#fff" stroke-miterlimit="10" stroke-width="1" opacity="0.03"/>
  <path id="Path_1220" data-name="Path 1220" d="M645.958,131.65V390.635a6.821,6.821,0,0,1-6.821,6.821H176.731a6.821,6.821,0,0,1-6.821-6.821V209.643q3.411-.588,6.821-.87,2.711-.222,5.468-.256h.995c2.024,0,4.036.1,6.031.25.21-.489.438-.978.648-1.467.8-1.751,1.62-3.49,2.45-5.207a.2.2,0,0,0,0-.045c.142-.3.284-.568.432-.881.671-1.4,1.37-2.785,2.086-4.161.33-.637.654-1.268.989-1.9.074-.148.148-.29.233-.438.341-.654.688-1.3,1.04-1.95q2.632-4.849,5.474-9.549c.165-.267.318-.534.483-.8.3-.483.568-.966.9-1.444.784-1.273,1.592-2.541,2.4-3.8.568-.887,1.137-1.773,1.751-2.649q2.217-3.325,4.547-6.565t4.843-6.48c.227-.3.455-.568.693-.881l2.427-3.052h0l.335-.415h0l.881-1.074c1.3-1.586,2.637-3.155,3.979-4.707A228.952,228.952,0,0,1,247.591,129.4c.3-.279.608-.568.91-.807,1.444-1.256,2.91-2.5,4.377-3.712H547.434q2,1.643,3.933,3.337,2.353-1.745,4.786-3.337h82.99A6.821,6.821,0,0,1,645.958,131.65Z" transform="translate(-79.633 -71.818)" fill="#fff"/>
  <path id="Path_1221" data-name="Path 1221" d="M644.573,212.09v6.446H229.88c.784-1.273,1.592-2.541,2.41-3.8.568-.887,1.137-1.773,1.745-2.649Z" transform="translate(-105.515 -109.456)" fill="#3f3d56"/>
  <rect id="Rectangle_87" data-name="Rectangle 87" width="245.473" height="6.446" transform="translate(450.111 71.144) rotate(90)" fill="#3f3d56"/>
  <rect id="Rectangle_88" data-name="Rectangle 88" width="245.473" height="6.446" transform="translate(331.521 71.144) rotate(90)" fill="#3f3d56"/>
  <rect id="Rectangle_89" data-name="Rectangle 89" width="245.473" height="6.446" transform="translate(212.931 71.144) rotate(90)" fill="#3f3d56"/>
  <path id="Path_1222" data-name="Path 1222" d="M235.586,247.6v25.386H209.37V254.978c.142-.3.284-.568.432-.881.676-1.4,1.37-2.785,2.092-4.161.324-.637.648-1.268.983-1.9.074-.148.153-.29.233-.438Z" transform="translate(-96.663 -124.781)" fill="url(#linear-gradient)"/>
  <path id="Path_1223" data-name="Path 1223" d="M235.482,248.357v24.51H210.17V254.4c.676-1.4,1.37-2.785,2.092-4.161.324-.637.648-1.268.983-1.9Z" transform="translate(-97.008 -125.1)" fill="#7cfcff"/>
  <rect id="Rectangle_90" data-name="Rectangle 90" width="26.221" height="25.386" transform="translate(218.888 115.083)" fill="url(#linear-gradient-2)"/>
  <rect id="Rectangle_91" data-name="Rectangle 91" width="25.318" height="24.51" transform="translate(219.343 115.521)" fill="#7cfcff"/>
  <rect id="Rectangle_92" data-name="Rectangle 92" width="26.221" height="25.386" transform="translate(337.319 164.371)" fill="url(#linear-gradient-2)"/>
  <rect id="Rectangle_93" data-name="Rectangle 93" width="25.318" height="24.51" transform="translate(337.774 164.808)" fill="#7cfcff"/>
  <rect id="Rectangle_94" data-name="Rectangle 94" width="26.221" height="25.386" transform="translate(458.166 181.185)" fill="url(#linear-gradient-4)"/>
  <rect id="Rectangle_95" data-name="Rectangle 95" width="25.318" height="24.51" transform="translate(458.615 181.622)" fill="#7cfcff"/>
  <rect id="Rectangle_96" data-name="Rectangle 96" width="26.221" height="25.386" transform="translate(490.543 197.618)" fill="url(#linear-gradient-5)"/>
  <rect id="Rectangle_97" data-name="Rectangle 97" width="25.318" height="24.51" transform="translate(490.998 198.055)" fill="#7cfcff"/>
  <rect id="Rectangle_98" data-name="Rectangle 98" width="26.221" height="25.386" transform="translate(531.151 153.707)" fill="url(#linear-gradient-6)"/>
  <rect id="Rectangle_99" data-name="Rectangle 99" width="25.318" height="24.51" transform="translate(531.6 154.145)" fill="#7cfcff"/>
  <rect id="Rectangle_100" data-name="Rectangle 100" width="26.221" height="25.386" transform="translate(522.932 189.325)" fill="url(#linear-gradient-4)"/>
  <rect id="Rectangle_101" data-name="Rectangle 101" width="25.318" height="24.51" transform="translate(523.381 189.762)" fill="#7cfcff"/>
  <rect id="Rectangle_102" data-name="Rectangle 102" width="26.221" height="25.386" transform="translate(254.659 115.083)" fill="url(#linear-gradient-2)"/>
  <rect id="Rectangle_103" data-name="Rectangle 103" width="25.318" height="24.51" transform="translate(255.114 115.521)" fill="#7cfcff"/>
  <rect id="Rectangle_104" data-name="Rectangle 104" width="26.221" height="25.386" transform="translate(132.141 176.626)" fill="url(#linear-gradient-6)"/>
  <rect id="Rectangle_105" data-name="Rectangle 105" width="25.318" height="24.51" transform="translate(132.59 177.064)" fill="#ffffa5"/>
  <rect id="Rectangle_106" data-name="Rectangle 106" width="26.221" height="25.386" transform="translate(237.811 151.678)" fill="url(#linear-gradient-5)"/>
  <rect id="Rectangle_107" data-name="Rectangle 107" width="25.318" height="24.51" transform="translate(238.266 152.116)" fill="#ffffa5"/>
  <rect id="Rectangle_108" data-name="Rectangle 108" width="26.221" height="25.386" transform="translate(374.483 136.507)" fill="url(#linear-gradient-4)"/>
  <rect id="Rectangle_109" data-name="Rectangle 109" width="25.318" height="24.51" transform="translate(374.932 136.944)" fill="#ffffa5"/>
  <rect id="Rectangle_110" data-name="Rectangle 110" width="26.221" height="25.386" transform="translate(512.831 118.704)" fill="url(#linear-gradient-5)"/>
  <rect id="Rectangle_111" data-name="Rectangle 111" width="25.318" height="24.51" transform="translate(513.286 119.141)" fill="#ffffa5"/>
  <rect id="Rectangle_112" data-name="Rectangle 112" width="26.221" height="25.386" transform="translate(409.077 115.083)" fill="url(#linear-gradient-6)"/>
  <rect id="Rectangle_113" data-name="Rectangle 113" width="25.318" height="24.51" transform="translate(409.526 115.521)" fill="#ffffa5"/>
  <rect id="Rectangle_114" data-name="Rectangle 114" width="26.221" height="25.386" transform="translate(407.588 164.371)" fill="url(#linear-gradient-2)"/>
  <rect id="Rectangle_115" data-name="Rectangle 115" width="25.318" height="24.51" transform="translate(408.042 164.808)" fill="#ffffa5"/>
  <rect id="Rectangle_116" data-name="Rectangle 116" width="26.221" height="25.386" transform="translate(289.867 127.344)" fill="url(#linear-gradient-5)"/>
  <rect id="Rectangle_117" data-name="Rectangle 117" width="25.318" height="24.51" transform="translate(290.322 127.776)" fill="#ffffa5"/>
  <rect id="Rectangle_118" data-name="Rectangle 118" width="26.221" height="25.386" transform="translate(150.547 135.512)" fill="url(#linear-gradient-5)"/>
  <rect id="Rectangle_119" data-name="Rectangle 119" width="25.318" height="24.51" transform="translate(151.002 135.95)" fill="#ff69b4"/>
  <rect id="Rectangle_120" data-name="Rectangle 120" width="26.221" height="25.386" transform="translate(163.66 164.371)" fill="url(#linear-gradient-6)"/>
  <rect id="Rectangle_121" data-name="Rectangle 121" width="25.318" height="24.51" transform="translate(164.109 164.808)" fill="#ff69b4"/>
  <rect id="Rectangle_122" data-name="Rectangle 122" width="26.221" height="25.386" transform="translate(272.422 168.492)" fill="url(#linear-gradient-4)"/>
  <rect id="Rectangle_123" data-name="Rectangle 123" width="25.318" height="24.51" transform="translate(272.871 168.93)" fill="#ff69b4"/>
  <rect id="Rectangle_124" data-name="Rectangle 124" width="26.221" height="25.386" transform="translate(464.322 118.704)" fill="url(#linear-gradient-5)"/>
  <rect id="Rectangle_125" data-name="Rectangle 125" width="25.318" height="24.51" transform="translate(464.777 119.141)" fill="#ff69b4"/>
  <rect id="Rectangle_126" data-name="Rectangle 126" width="26.221" height="25.386" transform="translate(487.525 153.707)" fill="url(#linear-gradient-2)"/>
  <rect id="Rectangle_127" data-name="Rectangle 127" width="25.318" height="24.51" transform="translate(487.98 154.145)" fill="#ff69b4"/>
  <rect id="Rectangle_128" data-name="Rectangle 128" width="26.221" height="25.386" transform="translate(339.61 115.083)" fill="url(#linear-gradient-2)"/>
  <rect id="Rectangle_129" data-name="Rectangle 129" width="25.318" height="24.51" transform="translate(340.065 115.521)" fill="#ff69b4"/>
  <rect id="Rectangle_130" data-name="Rectangle 130" width="26.221" height="25.386" transform="translate(371.516 189.325)" fill="url(#linear-gradient-4)"/>
  <rect id="Rectangle_131" data-name="Rectangle 131" width="25.318" height="24.51" transform="translate(371.965 189.762)" fill="#ff69b4"/>
  <path id="Path_1224" data-name="Path 1224" d="M826.334,318.465a5.019,5.019,0,0,0-2-3.365,19.924,19.924,0,0,0-3.479-2.012,2.841,2.841,0,0,1-1.012-.722,9.045,9.045,0,0,1-.568-1.091c-.682-1.188-2.16-1.563-3.32-2.274-2.069-1.256-3.024-3.484-3.882-5.826-.057-.148-.1-.3-.159-.438-.836-2.319-1.631-4.7-3.365-6.321a7.219,7.219,0,0,0-9.027-.483,2.126,2.126,0,0,1-1.273.631,2.4,2.4,0,0,1-1.222-.659,4.985,4.985,0,0,0-3.047-.841,29.035,29.035,0,0,1-.858-6.338v-.057h0a.085.085,0,0,1,0-.04h0v-1.58h.358a4.064,4.064,0,0,0,1.256-.142,3.414,3.414,0,0,0,.495-.182h0c1.529-.722,2.456-2.427,3.143-4.041.455-1.069.875-2.166,1.233-3.285.046-.142.085-.284.136-.432h0c.063-.227.136-.46.193-.693a1.061,1.061,0,0,1,.057-.222c.017-.074.04-.142.057-.216l.051-.239.29.2h0l.051.028.625.438c2.933,2.007,6.014,3.9,7.287,3.945h0a.659.659,0,0,0,.375-.074c.824-.455-.756-2.149-2.74-3.871-.165-.148-.341-.29-.517-.438-1.472-1.245-3.058-2.45-3.979-3.143l-.853-.62a8.4,8.4,0,0,0,2.092-4.547,35.288,35.288,0,0,0,.534-4.769v-.08a19.238,19.238,0,0,0-.46-5.116,11.832,11.832,0,0,0-5.684-7.878c-.853-.443-1.825-.79-2.666-1.268-.159-.091-.3-.188-.449-.284h0a3.945,3.945,0,0,1-.739-.631,2.578,2.578,0,0,1-.375-.512,1.525,1.525,0,0,1-.148-.267,3.446,3.446,0,0,0-.421-.813c-.568-.631-1.523-.443-2.348-.341h-.711c-2.95.068-5.8-1.58-8.782-1.58-3.263,0-6.042,1.893-8.919,3.189-.568.267-1.137.506-1.643.75-.432.2-.836.409-1.228.631h0q-.229.128-.443.279h0a6.309,6.309,0,0,0-2.433,2.842,5.854,5.854,0,0,0-1.2,2.313,5.718,5.718,0,0,0-.154,1.188,19.707,19.707,0,0,0-5.895,14.04v.858a19.724,19.724,0,0,0,14.034,18.053h0c.222.068.449.136.682.193.057.193.136.387.193.568.119.369.233.733.318,1.1h0a5.53,5.53,0,0,1,.136.568,15.39,15.39,0,0,1,.409,3.86c0,.114,0,.222,0,.341h0v.04a14.983,14.983,0,0,0-4.263,1.705,8.225,8.225,0,0,0-3.587,4.417,3.546,3.546,0,0,0-.114.415,11.415,11.415,0,0,0-3.246-.568,3.461,3.461,0,0,0-2.8.836,2.523,2.523,0,0,0-.517,1.074c-.387.347-.455.955-.722,1.421-.83,1.455-2.99.978-4.616,1.376a3.2,3.2,0,0,0-.483.159h0c-1.54.568-2.842,1.933-4.479,1.944a11.44,11.44,0,0,0-1.961-.108l-.119.028c-.676.171-1.216,1.1-.693,1.569a2.227,2.227,0,0,0-2.1,1.006c-.512.648-.824,1.421-1.376,2.029a2.126,2.126,0,0,0-2.154-.836,7.811,7.811,0,0,0-2.274.9,3.12,3.12,0,0,1-1.006.352,4.354,4.354,0,0,1-1.211-.108,9.777,9.777,0,0,0-5.735.8c-1.569.745-3.087-.625-4.82-.733a2.671,2.671,0,0,1-1.762-.568.76.76,0,0,1-.131-.142,2.557,2.557,0,0,1-.25-.438c-.114-.261-.188-.568-.284-.813a6.907,6.907,0,0,0-4.769-4.411l-.284-.068a5.031,5.031,0,0,0,.239-1h0a5.906,5.906,0,0,0-3.7-6.253,6.253,6.253,0,0,0-2.16-5.474,9.577,9.577,0,0,1-1.035-.813l-.057-.045a2.634,2.634,0,0,1-.392-.517h0a8,8,0,0,1-.6-1.324c-.506-1.353-1.023-2.706-1.529-4.059-.682-.136-1.211-.421-1.859-.529v-.415a13.481,13.481,0,0,0-.7-4.076,18.812,18.812,0,0,0-2.211-4.388h0c-.142-.227-.29-.449-.443-.671h0c-.193-.3-.4-.568-.608-.887a17.59,17.59,0,0,0-5.269-5.292,20.553,20.553,0,0,0-2.245-1.035l-3.979-1.631a1.872,1.872,0,0,0-.711-.193c-.955,0-1.211,1.313-.83,2.217a2.237,2.237,0,0,0,.165.307c1.211,1.773,3.922,2.274,4.678,4.28a2.734,2.734,0,0,0-1.04.222,3.013,3.013,0,0,0-1.779,1.978,1.631,1.631,0,0,1-.375.887c-.358.279-.9.119-1.29.335-.7.375-.4,1.427-.478,2.223a10.037,10.037,0,0,1-.722,2,3.525,3.525,0,0,0-.085,1.614l.034.17h0a1.96,1.96,0,0,0,.051.25,5.152,5.152,0,0,0,.7,1.569,12.753,12.753,0,0,0,2.592,2.626c.648.534,1.307,1.074,2,1.563.2.136.392.267.568.4a.666.666,0,0,0-.062.108.781.781,0,0,1-.1.244h0a1.251,1.251,0,0,0-.068.7,1.137,1.137,0,0,0,.222.466h0a4.252,4.252,0,0,0,.5.512,10.231,10.231,0,0,1,3.115,5.627,3.444,3.444,0,0,1-.046,1.273h0a10.47,10.47,0,0,0-.506,2.581,4.048,4.048,0,0,0,.08.637h0a13.5,13.5,0,0,0,.9,2.939c1.057,2.683,2.177,5.457,4.286,7.389a23.931,23.931,0,0,0,4.809,11.84,37.974,37.974,0,0,0,8.1,7.1,15.164,15.164,0,0,0,2.99,1.876,17.193,17.193,0,0,0,2.967.8,152.331,152.331,0,0,0,24.812,2.9l1.137.04h.057c0,.438.04.875.057,1.313q.29,6.554.267,13.119v1.177a6.588,6.588,0,0,1-.352,2.518,7.293,7.293,0,0,1-1.182,1.705c-.108.136-.227.279-.335.421-1.705,2.274-2.035,5.3-1.978,8.225v.051a12.49,12.49,0,0,0,.046,1.307,89.331,89.331,0,0,0,1.4,11.647c.671,3.649.387,7.583.909,11.277a18.194,18.194,0,0,0,.909,3.706q1.029,2.768,2.058,5.531a4.855,4.855,0,0,1,.409,1.631,2.725,2.725,0,0,1-.04.529h0a9.305,9.305,0,0,1-1.359,2.745,9.5,9.5,0,0,0-1.2,5.025c0,.045,0,.091,0,.142h0a.819.819,0,0,0,.136.409c.222.307.688.279,1.057.222a42.131,42.131,0,0,1,4.462-.415h.159c-.051.063-.108.125-.159.193h0c-.171.233-.341.483-.506.756h0l-.08.136a17.075,17.075,0,0,0-.983,2.012A19.026,19.026,0,0,0,751.1,418.1a3.293,3.293,0,0,0-.131.568c-.091.375-.17.75-.227,1.137a36.1,36.1,0,0,0-.409,5.912v.819c-.045.881-.091,1.773-.142,2.637a42.867,42.867,0,0,1-.676,6.98,5.74,5.74,0,0,0-.193,1.933v.028a15.831,15.831,0,0,0,.364,2.575c.176.9.409,1.825.642,2.74v.091a9.948,9.948,0,0,0,.068,1.012v.045a16.688,16.688,0,0,0,.9,4.394v.745a.736.736,0,0,0,0,.114h0c0,.409.051.824.091,1.233.125,1.2.324,2.393.568,3.587v.2q1.705,9.47,3.467,18.934c.068.381.142.756.216,1.137q1.91,10.129,3.979,20.23c.119.568.227,1.137.352,1.705.063.267.119.54.188.807s.159.654.239.978a28.108,28.108,0,0,0,5.178,10.232,46.809,46.809,0,0,1,5.4,8.651,1.009,1.009,0,0,1-.062.25h0c-.125.6-.261,1.2-.4,1.8l-.034.136c-1.512,6.417-3.53,12.744-4.229,19.326-.051.472-.091.944-.136,1.421a20.811,20.811,0,0,1-1.25,6.3c-.244.568-.54,1.108-.8,1.671a6.078,6.078,0,0,0-.608,2.063,1.58,1.58,0,0,0,0,.284.324.324,0,0,0,0,.074.221.221,0,0,0,0,.028h0a4.1,4.1,0,0,0,.568,2.012l-.074.057c-.153.119-.3.233-.443.352l-.284.239c-1.961,1.557-4.587,1.876-7.014,2.507s-5.019,1.91-5.769,4.309c-.045.154-.08.307-.114.466a1.562,1.562,0,0,0-.034.227h0a4.139,4.139,0,0,0-.051.7v.051a.7.7,0,0,0,0,.108,6.474,6.474,0,0,0,2.842,4.746,15.708,15.708,0,0,0,6.935,2.126,23.016,23.016,0,0,1,7.105,1.631c1.887.938,3.484,2.478,5.485,3.155.119.04.239.063.364.1l-.108.063c-.273.165-.568.324-.824.472l-.443.244a20.782,20.782,0,0,1-6.622,2.109c-2.342.324-5.116.478-6.327,2.512h0a.4.4,0,0,0-.045.1h0a1.352,1.352,0,0,0-.131.313v.045a.662.662,0,0,0-.051.136.81.81,0,0,0-.051.154,1.062,1.062,0,0,1,0,.131,2.438,2.438,0,0,0-.1.449,3.762,3.762,0,0,0,.04,1.182,5.3,5.3,0,0,0,1.529,2.768,11.044,11.044,0,0,0,5.275,2.331,95.029,95.029,0,0,0,13.131,1.631l4.28.33c1.529.119,3.064.233,4.593.341,1.086.068,2.171.136,3.257.188s2.069.085,3.1.108H795.1q3.979,0,7.907-.335c2.541-.227,5.053-.568,7.554-1.012a1.705,1.705,0,0,0,1.228-.568,1.133,1.133,0,0,0,.074-.142.485.485,0,0,0,.034-.1.205.205,0,0,0,0-.051.725.725,0,0,0,0-.108,1.427,1.427,0,0,0,0-.165v-.4c0-.54,0-1.074-.04-1.614v-.659l-.034-.665c-.04-.648-.08-1.3-.136-1.95l-.068-.773v-.256a4.588,4.588,0,0,0-.057-.568.986.986,0,0,0-.04-.335l-.1-.915c-.08-.671-.171-1.336-.267-2q-.313-2.183-.767-4.337v-.074c-.108-.489-.216-.972-.318-1.455-.358-1.535-2.45.568-3.621,1.881-.154-.733-.313-1.461-.506-2.171h0v-.085c.313-.142.62-.29.921-.438a3.274,3.274,0,0,0,1.705-1.41,2.45,2.45,0,0,0,.182-.762,3.334,3.334,0,0,0,0-.478v-.375c-.171-3.376-.375-6.872-1.978-9.834a20.915,20.915,0,0,0-3.905-4.763c0-.364-.04-.728-.057-1.091-.171-3.615-.415-7.23-.756-10.84a158,158,0,0,0-3.018-19.594c-.4-1.745-.813-3.49-1.319-5.212h0a34.1,34.1,0,0,0-4.411-9.851c-.381-.568-.79-1.137-1.205-1.705q-.182-3.195-.568-6.4c-.341-2.933-.8-5.855-1.279-8.748-.04-.273-.091-.568-.119-.836v-.045a2.752,2.752,0,0,1,.136-1.137,6.725,6.725,0,0,1,1.137-1.529,6.463,6.463,0,0,0,1.2-3.979,1.616,1.616,0,0,0,0-.165c0-1.506-.222-3.1-.324-4.593,0-.421-.04-.836-.04-1.256h0v-.045h0v-.188c0-.438,0-.87.028-1.3a57.2,57.2,0,0,1,1.705-9.959c.813-3.411,1.637-6.77,2.444-10.158h0q.486-1.978.949-3.979c.119-.472.233-.938.341-1.41a24.937,24.937,0,0,1,1.319-4.3,41.24,41.24,0,0,1,3.365-5.428,30.439,30.439,0,0,0,4.746-16.16h0a.1.1,0,0,0,0-.04v-.068a.752.752,0,0,0,0-.114v-1.137h0a5.5,5.5,0,0,0-.051-.9c.7.25,1.415.506,2.115.779a11.992,11.992,0,0,0,.091-1.285v-.045c.057-2.632-.517-5.428-.568-8.077a.373.373,0,0,1,0-.08V411.4a13.985,13.985,0,0,1,.176-2.6,10.47,10.47,0,0,1,.29-1.177c.2-.159.4-.318.568-.483h0a16.328,16.328,0,0,0,4.689-5.809c1.023-2.274,1.319-4.871,2.387-7.145a22.929,22.929,0,0,0,1.813-3.837,6.155,6.155,0,0,0,.188-1.285V389a42.271,42.271,0,0,0-.284-4.286h0v-.688c.057-3.945,2.512-7.64,2.785-11.488v-.051a9.216,9.216,0,0,0-.091-1.933c-.3-1.916-1.319-3.706-1.506-5.616h0a4.544,4.544,0,0,1-.034-.733,11.165,11.165,0,0,1,.892-3.45c1.984-5.247,3.945-10.766,4.093-16.3a.156.156,0,0,0,0-.051v-.119a20.519,20.519,0,0,0-.347-4.519c-.261-1.449-.688-2.882-.8-4.337a9.3,9.3,0,0,1,0-1.137c.091-1.6.676-3.16.83-4.729h0a6.454,6.454,0,0,0,0-1.518,4.786,4.786,0,0,0-.512-1.5h0a4.765,4.765,0,0,0-.432-.682,25.89,25.89,0,0,0,2.313-4.434,8.3,8.3,0,0,0,.568-1.819A4.213,4.213,0,0,0,826.334,318.465Zm-38.892,250.8h0l-.057-.034a7.1,7.1,0,0,0-1.893-.54c-.159,0-.324-.034-.483-.046h-.034a9.42,9.42,0,0,0,.188-1.609c0-.318,0-.642,0-.966v-.631c0-.318-.028-.642-.051-.961s-.062-.693-.085-1.04h0a1.505,1.505,0,0,1,0-.159c.074.216.154.432.244.648q1.052,2.74,2.274,5.394ZM800.6,274.049Z" transform="translate(-303.885 -124.082)" fill="url(#linear-gradient-23)"/>
  <path id="Path_1225" data-name="Path 1225" d="M835.009,323.886c-.074,2.882-1.052,5.684-1.205,8.56,8.526.421,16.876-3.7,25.283-2.439-2.348-1.518-3.6-4.263-4.343-6.963a28.769,28.769,0,0,1-.83-10.7,4.325,4.325,0,0,1,.1-.568c.313-1.41,1.137-3.411.9-4.519-.284-1.467-1.671-1.177-2.916-1.091a110.346,110.346,0,0,0-11.334,1.461c-.978.171-10.5,2.547-10.641,2.3a45.143,45.143,0,0,1,4.121,8.487,16.535,16.535,0,0,1,.858,5.468Z" transform="translate(-364.526 -150.023)" fill="#ee8e9e"/>
  <path id="Path_1226" data-name="Path 1226" d="M690.361,308.125a12.314,12.314,0,0,0,2.6,2.615c.642.529,1.3,1.069,2,1.552A8.526,8.526,0,0,0,699.2,314c2.024.136,6.321-1.052,7.577-2.785a5.014,5.014,0,0,0,.722-2.9,13.435,13.435,0,0,0-.693-4.059,22.571,22.571,0,0,0-3.28-5.923,17.431,17.431,0,0,0-5.264-5.269,20.421,20.421,0,0,0-2.24-1.029l-3.979-1.626a2,2,0,0,0-.722-.188c-1.063,0-1.256,1.631-.654,2.507,1.205,1.768,3.916,2.274,4.678,4.263a3.035,3.035,0,0,0-2.842,2.183,1.557,1.557,0,0,1-.381.887c-.347.279-.892.119-1.29.33-.7.375-.392,1.421-.466,2.217a10.094,10.094,0,0,1-.728,1.989A4.229,4.229,0,0,0,690.361,308.125Z" transform="translate(-303.885 -143.175)" fill="#ee8e9e"/>
  <path id="Path_1227" data-name="Path 1227" d="M883.649,820.325a3.013,3.013,0,0,0-2.637-.4,98,98,0,0,1-14.819,1.2c-.62-3.035,1.182-5.986,1.762-9.027a7.961,7.961,0,0,1,.568-2.274c.693-1.341,2.274-1.955,3.752-2.274,2.672-.568,6.821-1.557,8.339,1.137C882.427,811.935,883,816.721,883.649,820.325Z" transform="translate(-380.078 -366.16)" fill="#65617d"/>
  <path id="Path_1228" data-name="Path 1228" d="M799.309,799.348a15.633,15.633,0,0,0,6.935,2.115,22.316,22.316,0,0,1,7.105,1.62c1.893.932,3.484,2.467,5.491,3.138a11.384,11.384,0,0,0,5.684.091c2.274-.421,4.65-1.245,5.866-3.189,1.086-1.705.966-3.916.819-5.951-.176-2.274-.341-4.6-.512-6.906a3.37,3.37,0,0,0-.426-1.671c-1.631-2.37-5.588.995-7.7.989a14.828,14.828,0,0,1-9.379-4.047,2.843,2.843,0,0,0-.728-.568c-.961-.432-1.916.364-2.768,1.057-.091.08-.187.154-.284.227-1.961,1.557-4.587,1.87-7.009,2.5s-5.019,1.9-5.77,4.286a3.419,3.419,0,0,0-.114.46A6.079,6.079,0,0,0,799.309,799.348Z" transform="translate(-350.028 -356.643)" fill="#3f3d56"/>
  <path id="Path_1229" data-name="Path 1229" d="M799.309,799.348a15.633,15.633,0,0,0,6.935,2.115,22.316,22.316,0,0,1,7.105,1.62c1.893.932,3.484,2.467,5.491,3.138a11.384,11.384,0,0,0,5.684.091c2.274-.421,4.65-1.245,5.866-3.189,1.086-1.705.966-3.916.819-5.951-.176-2.274-.341-4.6-.512-6.906a3.37,3.37,0,0,0-.426-1.671c-1.631-2.37-5.588.995-7.7.989a14.828,14.828,0,0,1-9.379-4.047,2.843,2.843,0,0,0-.728-.568c-.961-.432-1.916.364-2.768,1.057-.091.08-.187.154-.284.227-1.961,1.557-4.587,1.87-7.009,2.5s-5.019,1.9-5.77,4.286a3.419,3.419,0,0,0-.114.46A6.079,6.079,0,0,0,799.309,799.348Z" transform="translate(-350.028 -356.643)" opacity="0.05"/>
  <path id="Path_1230" data-name="Path 1230" d="M799.148,800.108a15.634,15.634,0,0,0,6.935,2.115,22.314,22.314,0,0,1,7.105,1.62c1.893.938,3.484,2.467,5.491,3.138a11.385,11.385,0,0,0,5.684.091,9.413,9.413,0,0,0,5.866-3.979c1.086-1.705.966-3.916.818-5.951-.176-2.274-.341-4.6-.512-6.906a3.369,3.369,0,0,0-.426-1.671c-1.631-2.37-5.588.995-7.7.989a14.828,14.828,0,0,1-9.379-4.047,2.842,2.842,0,0,0-.728-.568c-.961-.432-1.916.364-2.768,1.057a19.9,19.9,0,0,0,2.359,4.866,10.179,10.179,0,0,0,7.389,4.627c1.5.108,3.041-.188,4.491.2s2.8,1.87,2.274,3.28-2.274,1.705-3.74,1.756a16.746,16.746,0,0,1-6.1-.426c-1.188-.4-2.274-1.052-3.411-1.535-4.917-2.041-11.13-.9-15.194-4.343a8.641,8.641,0,0,0-1.239-.949C795.3,795.72,797.266,798.818,799.148,800.108Z" transform="translate(-349.867 -356.63)" fill="#e8eaf2"/>
  <path id="Path_1231" data-name="Path 1231" d="M799.148,800.108a15.634,15.634,0,0,0,6.935,2.115,22.314,22.314,0,0,1,7.105,1.62c1.893.938,3.484,2.467,5.491,3.138a11.385,11.385,0,0,0,5.684.091,9.413,9.413,0,0,0,5.866-3.979c1.086-1.705.966-3.916.818-5.951-.176-2.274-.341-4.6-.512-6.906a3.369,3.369,0,0,0-.426-1.671c-1.631-2.37-5.588.995-7.7.989a14.828,14.828,0,0,1-9.379-4.047,2.842,2.842,0,0,0-.728-.568c-.961-.432-1.916.364-2.768,1.057a19.9,19.9,0,0,0,2.359,4.866,10.179,10.179,0,0,0,7.389,4.627c1.5.108,3.041-.188,4.491.2s2.8,1.87,2.274,3.28-2.274,1.705-3.74,1.756a16.746,16.746,0,0,1-6.1-.426c-1.188-.4-2.274-1.052-3.411-1.535-4.917-2.041-11.13-.9-15.194-4.343a8.641,8.641,0,0,0-1.239-.949C795.3,795.72,797.266,798.818,799.148,800.108Z" transform="translate(-349.867 -356.63)" opacity="0.05"/>
  <path id="Path_1232" data-name="Path 1232" d="M852.752,540.163a30.229,30.229,0,0,1-4.15,22.316,43.206,43.206,0,0,0-3.365,5.4,24.918,24.918,0,0,0-1.319,4.286L840.19,587.62c-1.012,4.172-2.024,8.424-1.705,12.7.21,2.984.961,6.338-.875,8.7a6.4,6.4,0,0,0-1.137,1.523,3.894,3.894,0,0,0,0,2.012c1.887,11.221,3.291,22.947-.119,33.8-3.092,9.839-3.274,20.742-5.9,30.695a6.821,6.821,0,0,1-1.637,3.411,5.338,5.338,0,0,1-2.444,1.137c-3.877.927-7.958-.159-11.584-1.83-2.541-1.177-5.275-3.24-5.059-6.031a12.285,12.285,0,0,1,1.41-3.717c1.029-2.4,1.137-5.076,1.393-7.674.7-6.526,2.711-12.818,4.229-19.2s2.552-13.045,1.268-19.48a170.273,170.273,0,0,0-12.505-38.55,4.588,4.588,0,0,0-1.137-1.705c-.512-.421-1.188-.614-1.626-1.137a5,5,0,0,1-.739-2.018c-.568-2.035-2.245-3.536-3.371-5.326-2.842-4.513-1.944-10.3-1.836-15.632.1-5.19-.642-10.425.2-15.541s3.78-10.345,8.714-11.937a18.791,18.791,0,0,1,7.645-.358C826.872,532.813,840.025,535.3,852.752,540.163Z" transform="translate(-350.096 -247.198)" fill="#303d5c"/>
  <path id="Path_1233" data-name="Path 1233" d="M852.752,540.163a30.229,30.229,0,0,1-4.15,22.316,43.206,43.206,0,0,0-3.365,5.4,24.918,24.918,0,0,0-1.319,4.286L840.19,587.62c-1.012,4.172-2.024,8.424-1.705,12.7.21,2.984.961,6.338-.875,8.7a6.4,6.4,0,0,0-1.137,1.523,3.894,3.894,0,0,0,0,2.012c1.887,11.221,3.291,22.947-.119,33.8-3.092,9.839-3.274,20.742-5.9,30.695a6.821,6.821,0,0,1-1.637,3.411,5.338,5.338,0,0,1-2.444,1.137c-3.877.927-7.958-.159-11.584-1.83-2.541-1.177-5.275-3.24-5.059-6.031a12.285,12.285,0,0,1,1.41-3.717c1.029-2.4,1.137-5.076,1.393-7.674.7-6.526,2.711-12.818,4.229-19.2s2.552-13.045,1.268-19.48a170.273,170.273,0,0,0-12.505-38.55,4.588,4.588,0,0,0-1.137-1.705c-.512-.421-1.188-.614-1.626-1.137a5,5,0,0,1-.739-2.018c-.568-2.035-2.245-3.536-3.371-5.326-2.842-4.513-1.944-10.3-1.836-15.632.1-5.19-.642-10.425.2-15.541s3.78-10.345,8.714-11.937a18.791,18.791,0,0,1,7.645-.358C826.872,532.813,840.025,535.3,852.752,540.163Z" transform="translate(-350.096 -247.198)" opacity="0.05"/>
  <path id="Path_1234" data-name="Path 1234" d="M796.8,574.6a32.794,32.794,0,0,0,.682,5.991q3.581,20.094,7.634,40.1c.239,1.137.472,2.313.784,3.45a28.029,28.029,0,0,0,5.173,10.175c11.255,14.029,12.227,34.407,18.337,51.329.409,1.137.824,2.274,1.262,3.411a83.722,83.722,0,0,0,3.769,8.407,2.388,2.388,0,0,0,.773,1.006,2.324,2.324,0,0,0,1.228.239,35.81,35.81,0,0,0,15.888-3.6,3.3,3.3,0,0,0,1.705-1.4,3.438,3.438,0,0,0,.176-1.614c-.171-3.354-.375-6.821-1.972-9.777a20.974,20.974,0,0,0-3.911-4.741,179.991,179.991,0,0,0-3.831-31.36c-1.188-5.258-2.66-10.573-5.684-15.018-2.274-3.28-5.48-6.514-5.082-10.476.176-1.705.9-3.9-.512-4.923-.62-.449-1.535-.506-1.95-1.137a2.155,2.155,0,0,1-.273-.978,24.251,24.251,0,0,1,.5-8.123,43.707,43.707,0,0,0,1.211-5.292,6.671,6.671,0,0,0-1.33-5.116c-.074-3.615,0-7.389-.051-10.971a20.459,20.459,0,0,1,.506-6.128c.279-.949.693-1.853.9-2.842.756-3.467-1.137-7.628,1.137-10.379.938-1.137,2.382-1.705,3.6-2.535a13.228,13.228,0,0,0,4.945-7.111,40.7,40.7,0,0,0,1.4-8.708,9.063,9.063,0,0,0,0-1.881,3.371,3.371,0,0,0-.25-.938c-.7-1.569-2.575-2.177-4.246-2.581a137.227,137.227,0,0,0-32.4-3.786c-4.036-2.751-6.31-1.768-8.02,1.137a30.24,30.24,0,0,0-2.274,5.576c-.784,2.359-.83,15.581-1.592,17.951C793.977,565.063,796.836,571.361,796.8,574.6Z" transform="translate(-349.323 -249.105)" fill="#303d5c"/>
  <path id="Path_1235" data-name="Path 1235" d="M906.257,389.3c.3,2.08-.7,4.127-.813,6.224a23.421,23.421,0,0,0,.824,5.428c1.3,7.048-1.2,14.182-3.752,20.878a10.744,10.744,0,0,0-.887,3.411c-.068,2.188,1.188,4.189,1.535,6.349.722,4.547-2.62,8.8-2.694,13.4,0,2.115.637,4.269.108,6.315a22.116,22.116,0,0,1-1.813,3.82c-1.074,2.274-1.359,4.826-2.387,7.105-1.847,4.127-5.826,6.821-9.606,9.294-2.154-.716-4.485-1.569-5.684-3.507a8.635,8.635,0,0,1-.983-3.075,80.28,80.28,0,0,1-.762-14.267,88.575,88.575,0,0,1,.671-12.232c.762-5.184,2.444-10.18,3.649-15.279,1.523-6.429,2.274-13.074,4.672-19.241a65.148,65.148,0,0,1,8.742-14.944c1.3-1.779,2.331-4.32,4.86-3.911a5.3,5.3,0,0,1,4.32,4.229Z" transform="translate(-385.803 -184.089)" fill="#6c63ff"/>
  <path id="Path_1236" data-name="Path 1236" d="M906.257,389.3c.3,2.08-.7,4.127-.813,6.224a23.421,23.421,0,0,0,.824,5.428c1.3,7.048-1.2,14.182-3.752,20.878a10.744,10.744,0,0,0-.887,3.411c-.068,2.188,1.188,4.189,1.535,6.349.722,4.547-2.62,8.8-2.694,13.4,0,2.115.637,4.269.108,6.315a22.116,22.116,0,0,1-1.813,3.82c-1.074,2.274-1.359,4.826-2.387,7.105-1.847,4.127-5.826,6.821-9.606,9.294-2.154-.716-4.485-1.569-5.684-3.507a8.635,8.635,0,0,1-.983-3.075,80.28,80.28,0,0,1-.762-14.267,88.575,88.575,0,0,1,.671-12.232c.762-5.184,2.444-10.18,3.649-15.279,1.523-6.429,2.274-13.074,4.672-19.241a65.148,65.148,0,0,1,8.742-14.944c1.3-1.779,2.331-4.32,4.86-3.911a5.3,5.3,0,0,1,4.32,4.229Z" transform="translate(-385.803 -184.089)" opacity="0.05"/>
  <path id="Path_1237" data-name="Path 1237" d="M830,309.892a45.144,45.144,0,0,1,4.121,8.487,19.558,19.558,0,0,0,4.678.568c6.122,0,10.459-3.484,14.057-7.884.313-1.415,2.274-2.728,2.035-3.843-.284-1.467-1.671-1.177-2.916-1.091a110.35,110.35,0,0,0-11.334,1.461C839.663,307.76,830.159,310.136,830,309.892Z" transform="translate(-364.513 -150.006)" opacity="0.1"/>
  <circle id="Ellipse_92" data-name="Ellipse 92" cx="19.616" cy="19.616" r="19.616" transform="translate(454.687 129.174)" fill="#ee8e9e"/>
  <path id="Path_1238" data-name="Path 1238" d="M801.9,538.459c3.411-.2,6.821-.063,10.232.074a34.418,34.418,0,0,1,6.344.654c2.575.568,4.985,1.756,7.526,2.49,4.07,1.188,8.367,1.239,12.579,1.654a71.93,71.93,0,0,1,8.236,1.29,3.37,3.37,0,0,0-.25-.938c-.7-1.569-2.575-2.177-4.246-2.581a137.224,137.224,0,0,0-32.4-3.786C805.885,534.565,803.611,535.548,801.9,538.459Z" transform="translate(-352.386 -249.114)" opacity="0.1"/>
  <path id="Path_1239" data-name="Path 1239" d="M809.077,345.509c.858.989,2.006,2.08,3.274,1.762a4.6,4.6,0,0,0,1.273-.682c2.274-1.461,5.036-1.8,7.7-2.2a113.685,113.685,0,0,0,15.853-3.564,16.131,16.131,0,0,1,4.689-.955c3.325,0,6.253,2.228,8.356,4.82s3.558,5.622,5.6,8.242c1.455,1.87,3.189,3.519,4.547,5.457,3.411,4.894,4.172,11.283,3.286,17.2s-3.251,11.488-5.593,17a60.46,60.46,0,0,1-4.547,9.2,21.821,21.821,0,0,1-1.762,13.642,13.322,13.322,0,0,0-1.779,4.064,10.1,10.1,0,0,0,.119,2.979l1,7.1c.3,2.166.608,4.326,1,6.474.722,3.933,1.705,8.2-.119,11.761-2.183,4.258.108,9.72-.466,14.472a72.8,72.8,0,0,0-19.116-4.547c-4.218-.415-8.526-.466-12.579-1.648-2.541-.739-4.945-1.91-7.526-2.5a34.864,34.864,0,0,0-6.349-.648,75.183,75.183,0,0,0-14.086.318c-.381.057-.836.085-1.063-.222a1.018,1.018,0,0,1-.142-.568,9.35,9.35,0,0,1,1.205-4.991c.568-1.046,1.415-2.075,1.393-3.274a4.925,4.925,0,0,0-.409-1.626l-2.058-5.5c-1.745-4.638-.915-10.033-1.819-14.9a87.523,87.523,0,0,1-1.353-11.533c-.171-3.308-.062-6.895,1.933-9.538a10.8,10.8,0,0,0,1.506-2.1,6.3,6.3,0,0,0,.358-2.507q.068-9.925-.568-19.844c1.745-3.126,3.558-6.327,5.3-9.453,2.024-3.638,4.081-7.35,4.9-11.431.568-2.706.523-5.485.91-8.214a3.553,3.553,0,0,1,.693-1.921,3.506,3.506,0,0,1,2.791-.83,12.244,12.244,0,0,1,3.649.711Z" transform="translate(-346.193 -164.603)" fill="#3142b5"/>
  <path id="Path_1240" data-name="Path 1240" d="M699.07,325.815a8.526,8.526,0,0,0,4.246,1.705c2.024.136,6.321-1.052,7.577-2.785a5.014,5.014,0,0,0,.722-2.9,3.51,3.51,0,0,0-.841-.165,22,22,0,0,0-6.582.267,7.446,7.446,0,0,0-5.116,3.837Z" transform="translate(-308.006 -156.698)" opacity="0.1"/>
  <path id="Path_1241" data-name="Path 1241" d="M764.617,368.656a13.89,13.89,0,0,1-4.132,3.894c-1.95,1.012-4.246,1.035-6.44.989a154,154,0,0,1-26.915-2.956,16.625,16.625,0,0,1-2.961-.8,15.773,15.773,0,0,1-3-1.864,38.376,38.376,0,0,1-8.1-7.065,23.777,23.777,0,0,1-4.8-11.772c-2.115-1.944-3.234-4.712-4.292-7.389a11.414,11.414,0,0,1-.978-3.587c-.057-1.268.784-2.6.568-3.848a10.174,10.174,0,0,0-3.109-5.6,2.029,2.029,0,0,1-.745-.983,1.592,1.592,0,0,1,.182-.961,7.4,7.4,0,0,1,5.116-3.837,22.012,22.012,0,0,1,6.582-.261,16.938,16.938,0,0,1,2.154.568l1.535,4.041a5.241,5.241,0,0,0,1.006,1.842,9.959,9.959,0,0,0,1.086.853,6.253,6.253,0,0,1,2.16,5.445A5.849,5.849,0,0,1,723,342.588a6.9,6.9,0,0,1,5.059,4.456,3.342,3.342,0,0,0,.659,1.387,2.706,2.706,0,0,0,1.768.568c1.705.108,3.246,1.472,4.82.733a9.772,9.772,0,0,1,5.7-.8,4.222,4.222,0,0,0,1.222.108,3.32,3.32,0,0,0,1-.347,8.214,8.214,0,0,1,2.274-.9,2.126,2.126,0,0,1,2.154.836c.568-.6.881-1.376,1.381-2.018a2.205,2.205,0,0,1,2.092-1c-.523-.466,0-1.393.688-1.563a8.626,8.626,0,0,1,2.092.08c1.813,0,3.206-1.66,4.968-2.092,1.62-.392,3.78.08,4.61-1.37.3-.512.352-1.205.853-1.518a1.631,1.631,0,0,1,1.091-.131,10.76,10.76,0,0,1,3.314,1.006c1.705,6.645.807,13.546-.489,20.281A17.977,17.977,0,0,1,764.617,368.656Z" transform="translate(-308.282 -157.106)" fill="#6c63ff"/>
  <path id="Path_1242" data-name="Path 1242" d="M812.495,443.89l8.447,17.053c-.915-1.575-2.842-2.188-4.36-3.195a11.55,11.55,0,0,1-4.167-5.6,34.374,34.374,0,0,1-1.626-6.923c-.171-1.08-.529-2.6,0-3.575C811.773,441.849,812.091,443.088,812.495,443.89Z" transform="translate(-356.102 -208.528)" opacity="0.1"/>
  <path id="Path_1243" data-name="Path 1243" d="M854.085,468.493a74.545,74.545,0,0,0,6.338,4.945c4.9,3.9,8.39,9.254,11.8,14.506a22.964,22.964,0,0,1,2.41,4.422c-.4.347-.995,0-1.387-.358l-6.639-5.832a14.977,14.977,0,0,1-2.211-2.24c-1.137-1.546-1.66-3.484-2.706-5.116a20.147,20.147,0,0,0-4.03-4.11c-1.461-1.268-8.526-7.225-6.821-9.521C852.073,465.8,853.091,467.509,854.085,468.493Z" transform="translate(-373.393 -218.688)" opacity="0.1"/>
  <path id="Path_1244" data-name="Path 1244" d="M828.374,338.137a19.849,19.849,0,0,1,7.02-2.314,14.779,14.779,0,0,1,4.468-.318c1.381.171,2.706.7,4.1.779,1.95.114,3.82-.682,5.684-1.194s4.064-.716,5.65.426a2.45,2.45,0,0,0,1.228.654,2.137,2.137,0,0,0,1.268-.625,7.242,7.242,0,0,1,9.021.477c3.6,3.371,3.194,9.959,7.389,12.505,1.165.7,2.649,1.08,3.325,2.274a7.88,7.88,0,0,0,.568,1.086,2.92,2.92,0,0,0,1.012.722,19.852,19.852,0,0,1,3.479,2,4.979,4.979,0,0,1,2,3.354,6.252,6.252,0,0,1-.62,2.842,26.443,26.443,0,0,1-25.7,16.439,4.082,4.082,0,0,1-2.694-.841,5.068,5.068,0,0,1-.944-1.552c-1.978-4.155-5.684-7.225-8.066-11.175-1.41-2.353-2.313-4.985-3.78-7.3-2.183-3.524-5.565-6.145-8.862-8.64-1.864-1.421-3.939-2.91-6.287-2.814-2.086.091-3.609.2-2.842-2.359a8.191,8.191,0,0,1,3.587-4.417Z" transform="translate(-362.176 -162.153)" fill="#6c63ff"/>
  <path id="Path_1245" data-name="Path 1245" d="M828.374,338.137a19.849,19.849,0,0,1,7.02-2.314,14.779,14.779,0,0,1,4.468-.318c1.381.171,2.706.7,4.1.779,1.95.114,3.82-.682,5.684-1.194s4.064-.716,5.65.426a2.45,2.45,0,0,0,1.228.654,2.137,2.137,0,0,0,1.268-.625,7.242,7.242,0,0,1,9.021.477c3.6,3.371,3.194,9.959,7.389,12.505,1.165.7,2.649,1.08,3.325,2.274a7.88,7.88,0,0,0,.568,1.086,2.92,2.92,0,0,0,1.012.722,19.852,19.852,0,0,1,3.479,2,4.979,4.979,0,0,1,2,3.354,6.252,6.252,0,0,1-.62,2.842,26.443,26.443,0,0,1-25.7,16.439,4.082,4.082,0,0,1-2.694-.841,5.068,5.068,0,0,1-.944-1.552c-1.978-4.155-5.684-7.225-8.066-11.175-1.41-2.353-2.313-4.985-3.78-7.3-2.183-3.524-5.565-6.145-8.862-8.64-1.864-1.421-3.939-2.91-6.287-2.814-2.086.091-3.609.2-2.842-2.359a8.191,8.191,0,0,1,3.587-4.417Z" transform="translate(-362.176 -162.153)" opacity="0.05"/>
  <path id="Path_1246" data-name="Path 1246" d="M812.076,829.445a11,11,0,0,0,5.269,2.319,95.933,95.933,0,0,0,13.125,1.62l4.286.33c4.184.313,8.373.637,12.573.654a86.5,86.5,0,0,0,15.461-1.336,1.307,1.307,0,0,0,1.416-1.569,74.7,74.7,0,0,0-1.9-15.524c-.489-2.092-4.24,2.6-4.405,2.8a4.34,4.34,0,0,1-3.411,1.808c-4.314.239-9.152-2.387-12.579-4.718a15.719,15.719,0,0,0-2.331-1.444,6.716,6.716,0,0,0-1.881-.568,11.4,11.4,0,0,0-6.423,1.3c-2.575,1.279-4.837,3.115-7.389,4.428a20.618,20.618,0,0,1-6.622,2.1c-2.336.324-5.116.478-6.327,2.5C809.944,825.836,810.66,828.109,812.076,829.445Z" transform="translate(-356.087 -369.125)" fill="#3f3d56"/>
  <path id="Path_1247" data-name="Path 1247" d="M811.85,830.272a11,11,0,0,0,5.269,2.319,95.925,95.925,0,0,0,13.125,1.62l4.286.33c4.184.313,8.373.637,12.574.654a86.508,86.508,0,0,0,15.461-1.336,1.705,1.705,0,0,0,1.228-.568,7.042,7.042,0,0,0,.955-1.751c-.085-5.224-1.5-10.436-2.672-15.524-.489-2.092-4.24,2.6-4.405,2.8a4.34,4.34,0,0,1-3.411,1.808c-4.314.239-9.152-2.387-12.579-4.718a15.711,15.711,0,0,0-2.331-1.444,6.713,6.713,0,0,0-1.882-.568c.568,3.1,5.008,6.855,7.3,8,4.65,2.308,10.175,1.137,15.347,1.427a2.109,2.109,0,0,1,1.086.267c.625.409.659,1.29.642,2.035-.045,1.239-.2,2.689-1.273,3.32a3.626,3.626,0,0,1-1.705.358,243.019,243.019,0,0,1-38.312-1.342,21.172,21.172,0,0,1-6.253-1.387,16,16,0,0,1-3.621-2.33C809.071,825.526,810.435,828.948,811.85,830.272Z" transform="translate(-355.862 -369.179)" fill="#e8eaf2"/>
  <path id="Path_1248" data-name="Path 1248" d="M827.487,277.214c.074,2.029-1.307,5.963,2.484,4.866,2.274-.659,2.9-3.337,5.77-2.74s3.53,4.132,4.5,6.446a12.329,12.329,0,0,0,8.936,7.225,5.372,5.372,0,0,0,2.461,0c1.853-.529,2.91-2.439,3.666-4.206a33.625,33.625,0,0,0,1.62-4.616,19.637,19.637,0,0,0,.568-3.411h0a15.335,15.335,0,0,0,0-2.342c-.347-4.61-2.967-8.816-6.332-12s-7.441-5.474-11.471-7.742a16.7,16.7,0,0,0-4.235-1.887,14.177,14.177,0,0,0-4.468-.182,15.416,15.416,0,0,0-5.684,1.336,8.044,8.044,0,0,0-2,1.4,5.991,5.991,0,0,0-1.705,2.893c-.728,2.984,1.171,5.684,2.717,8.02C825.685,272.382,827.385,274.6,827.487,277.214Z" transform="translate(-360.818 -128.634)" fill="#3f3d56"/>
  <path id="Path_1249" data-name="Path 1249" d="M719.77,362.195c.813-2.041,4.223-7.691,3.234-9.635a25.7,25.7,0,0,0-2.592,4.633C719.77,358.773,720.293,360.893,719.77,362.195Z" transform="translate(-316.94 -170.079)" opacity="0.1"/>
  <path id="Path_1250" data-name="Path 1250" d="M824.161,272.143c-1.546-2.359-3.45-5.042-2.723-8.02a6.316,6.316,0,0,1,2.206-3.3,5.489,5.489,0,0,0-.568,1.393c-.728,2.979,1.177,5.684,2.723,8.02,1.37,2.092,3.07,4.314,3.172,6.923.074,2.024-1.313,5.963,2.484,4.866,2.274-.654,2.9-3.337,5.77-2.734s3.524,4.127,4.5,6.44a12.352,12.352,0,0,0,8.958,7.225,5.371,5.371,0,0,0,2.461,0,3.676,3.676,0,0,0,1.137-.568,4.99,4.99,0,0,1-2.808,2.478,5.372,5.372,0,0,1-2.461,0,12.352,12.352,0,0,1-8.924-7.225c-.972-2.313-1.6-5.838-4.5-6.446s-3.507,2.086-5.77,2.74c-3.8,1.1-2.41-2.842-2.484-4.866C827.237,276.457,825.531,274.235,824.161,272.143Z" transform="translate(-360.749 -130.486)" opacity="0.1"/>
  <path id="Path_1251" data-name="Path 1251" d="M823.918,266.26a17.687,17.687,0,0,0,1.137,1.66,20.333,20.333,0,0,0,2.683,2.78,21.005,21.005,0,0,0,1.813,1.421,29.107,29.107,0,0,0,3.661,2.188,67.223,67.223,0,0,0,11.721,4.195l7.833,2.274c.961.728,2.723,2.041,4.667,3.411a19.637,19.637,0,0,0,.568-3.411h0a15.367,15.367,0,0,0,0-2.342c-.347-4.61-2.967-8.816-6.332-12s-7.441-5.474-11.471-7.742a16.7,16.7,0,0,0-4.235-1.887,14.177,14.177,0,0,0-4.468-.182,15.416,15.416,0,0,0-5.684,1.336,8.043,8.043,0,0,0-2,1.4,7.469,7.469,0,0,0-1.006,2.126A6.273,6.273,0,0,0,823.918,266.26Z" transform="translate(-361.347 -128.634)" opacity="0.1"/>
  <path id="Path_1252" data-name="Path 1252" d="M823.931,262.513a17.692,17.692,0,0,0,1.137,1.66,20.332,20.332,0,0,0,2.683,2.78,21.017,21.017,0,0,0,1.813,1.421,29.1,29.1,0,0,0,3.661,2.188,67.713,67.713,0,0,0,11.721,4.2l7.833,2.274c2.734,2.069,11.88,8.845,13.42,8,1.813-.995-8.117-8.026-8.117-8.026l-.46.347c1.455-.915,2.217-3.035,2.547-4.866a24.661,24.661,0,0,0,.074-9.93,11.78,11.78,0,0,0-5.684-7.844c-1.319-.676-2.916-1.137-3.865-2.177a2.783,2.783,0,0,1-.375-.506,2.45,2.45,0,0,1-.148-.267,3.488,3.488,0,0,0-.415-.807c-.568-.631-1.535-.443-2.359-.341l-.262.028h-.443c-2.944.068-5.8-1.575-8.776-1.575-3.268,0-6.042,1.887-8.919,3.177-.568.261-1.137.5-1.648.745-2.075.966-3.638,2-4.5,4.746A6.119,6.119,0,0,0,823.931,262.513Z" transform="translate(-361.359 -125.415)" fill="#6c63ff"/>
  <path id="Path_1253" data-name="Path 1253" d="M864.8,251.827a1.336,1.336,0,0,0,.307,1.705,2.439,2.439,0,0,0,1.239.443,8.989,8.989,0,0,0,.961.074,2.643,2.643,0,0,0,1.273-.222,1.136,1.136,0,0,0,.222-.142,2.78,2.78,0,0,1-.375-.506c-.074.057-.148.045-.443,0a6.821,6.821,0,0,1-1.586-.273,1.557,1.557,0,0,1-1.137-1.137Z" transform="translate(-379.454 -126.581)" opacity="0.1"/>
  <path id="Path_1254" data-name="Path 1254" d="M880.868,298.045a3.637,3.637,0,0,1-1.353.506,5.485,5.485,0,0,1-1.052.17A5.827,5.827,0,0,1,875.9,298Z" transform="translate(-384.322 -146.532)" opacity="0.1"/>
  <path id="Path_1255" data-name="Path 1255" d="M437.493,329.488l-.739-1.626-.3.08.773,1.62L442.8,341.3c-.119.153-1.762,2.12-1.705,3.979a2.676,2.676,0,0,0,.142.847c.284.83.637,1.165.955,1.256v-.142a3.507,3.507,0,0,1,0-.568v-.25a.568.568,0,0,1,0-.1v-.04h0a.974.974,0,0,0,.028-.125h0a.124.124,0,0,1,0-.045v-.057l.068-.244.028-.068.034-.125c.028-.08.057-.165.091-.244a.669.669,0,0,1,.045-.114l.068-.159c.068-.159.148-.313.222-.466a4.683,4.683,0,0,1,.233-.415,9.917,9.917,0,0,1,.75-1.08Zm6.2,19.667h-.034a.7.7,0,0,1-.347,0h-.057a.723.723,0,0,1-.1-.034.8.8,0,0,1-.233-.142l-.085-.08a2.125,2.125,0,0,1-.409-.648,2.085,2.085,0,0,0-.125.665,1.063,1.063,0,0,0,.517.995,1.932,1.932,0,0,1,.54.534h0a.04.04,0,0,0,0-.034h0a.167.167,0,0,1,0-.051.1.1,0,0,1,0-.04,3.1,3.1,0,0,1,.244-.676c.057-.108.108-.21.171-.307a.97.97,0,0,1,.074-.131l.051-.08.085-.136A1.011,1.011,0,0,1,443.689,349.155Zm0,0h-.034a.7.7,0,0,1-.347,0h-.057a.723.723,0,0,1-.1-.034.8.8,0,0,1-.233-.142l-.085-.08a2.125,2.125,0,0,1-.409-.648,2.085,2.085,0,0,0-.125.665,1.063,1.063,0,0,0,.517.995,1.932,1.932,0,0,1,.54.534h0a.04.04,0,0,0,0-.034h0a.167.167,0,0,1,0-.051.1.1,0,0,1,0-.04,3.1,3.1,0,0,1,.244-.676c.057-.108.108-.21.171-.307a.97.97,0,0,1,.074-.131l.051-.08.085-.136A1.011,1.011,0,0,1,443.689,349.155Zm-6.2-19.667-.739-1.626-.3.08.773,1.62L442.8,341.3c-.119.153-1.762,2.12-1.705,3.979a2.676,2.676,0,0,0,.142.847c.284.83.637,1.165.955,1.256v-.142a3.507,3.507,0,0,1,0-.568.3.3,0,0,1,0-.074v-.08h0a.124.124,0,0,0,0-.045h0v-.028a.142.142,0,0,1,0-.045h0a.327.327,0,0,1,0-.068h0a.885.885,0,0,1,.028-.131.124.124,0,0,1,0-.046V346.1l.068-.244.028-.068.034-.125c.028-.08.057-.165.091-.244a.674.674,0,0,1,.045-.114l.068-.159c.068-.159.148-.313.222-.466a4.679,4.679,0,0,1,.233-.415,9.917,9.917,0,0,1,.75-1.08Zm6.2,19.667h-.034a.7.7,0,0,1-.347,0h-.057a.723.723,0,0,1-.1-.034.8.8,0,0,1-.233-.142l-.085-.08a2.125,2.125,0,0,1-.409-.648,2.085,2.085,0,0,0-.125.665,1.063,1.063,0,0,0,.517.995,1.932,1.932,0,0,1,.54.534h0a.04.04,0,0,0,0-.034h0a.167.167,0,0,1,0-.051.1.1,0,0,1,0-.04,3.1,3.1,0,0,1,.244-.676l.119-.233.051-.074a.97.97,0,0,1,.074-.131l.051-.08.085-.136A1.011,1.011,0,0,1,443.689,349.155Zm-6.2-19.667-.739-1.626-.3.08.773,1.62L442.8,341.3c-.119.153-1.762,2.12-1.705,3.979a2.676,2.676,0,0,0,.142.847c.284.83.637,1.165.955,1.256v-.142a3.507,3.507,0,0,1,0-.568.3.3,0,0,1,0-.074v-.08h0a.124.124,0,0,0,0-.045h0a.142.142,0,0,1,0-.045h0a.323.323,0,0,1,0-.068h0a.877.877,0,0,1,.028-.131.124.124,0,0,1,0-.045v-.057l.068-.244.028-.068.034-.125c.028-.08.057-.165.091-.244a.668.668,0,0,1,.045-.114l.068-.159c.068-.159.148-.313.222-.466a4.679,4.679,0,0,1,.233-.415,9.916,9.916,0,0,1,.75-1.08Zm6.2,19.667h-.034a.7.7,0,0,1-.347,0h-.057a.723.723,0,0,1-.1-.034.8.8,0,0,1-.233-.142l-.085-.08a2.125,2.125,0,0,1-.409-.648,2.085,2.085,0,0,0-.125.665,1.063,1.063,0,0,0,.517.995,1.932,1.932,0,0,1,.54.534h0a.04.04,0,0,0,0-.034h0a.142.142,0,0,1,0-.045.138.138,0,0,1,0-.045,3.1,3.1,0,0,1,.244-.676l.119-.233.051-.074a.975.975,0,0,1,.074-.131l.051-.08.085-.136A1.012,1.012,0,0,1,443.689,349.155Zm-6.2-19.667-.739-1.626-.3.08.773,1.62L442.8,341.3c-.119.153-1.762,2.12-1.705,3.979a2.676,2.676,0,0,0,.142.847c.284.83.637,1.165.955,1.256v-.142a3.507,3.507,0,0,1,0-.568.3.3,0,0,1,0-.074v-.08h0a.124.124,0,0,0,0-.045h0a.142.142,0,0,1,0-.045h0a.323.323,0,0,1,0-.068h0a.877.877,0,0,1,.028-.131.124.124,0,0,1,0-.045v-.057l.068-.244.028-.068.034-.125c.028-.08.057-.165.091-.244a.668.668,0,0,1,.045-.114l.068-.159c.068-.159.148-.313.222-.466a4.679,4.679,0,0,1,.233-.415,9.916,9.916,0,0,1,.75-1.08Zm6.2,19.667h-.034a.7.7,0,0,1-.347,0h-.057a.723.723,0,0,1-.1-.034.8.8,0,0,1-.233-.142l-.085-.08a2.125,2.125,0,0,1-.409-.648,2.085,2.085,0,0,0-.125.665,1.063,1.063,0,0,0,.517.995,1.932,1.932,0,0,1,.54.534h0a.04.04,0,0,0,0-.034h0a.142.142,0,0,1,0-.045.138.138,0,0,1,0-.045,3.1,3.1,0,0,1,.244-.676l.119-.233.051-.074a.975.975,0,0,1,.074-.131l.051-.08.085-.136A1.012,1.012,0,0,1,443.689,349.155Zm-6.2-19.667-.739-1.626-.3.08.773,1.62L442.8,341.3c-.119.153-1.762,2.12-1.705,3.979a2.676,2.676,0,0,0,.142.847c.284.83.637,1.165.955,1.256v-.142a3.507,3.507,0,0,1,0-.568.3.3,0,0,1,0-.074v-.08h0a.124.124,0,0,0,0-.045h0a.142.142,0,0,1,0-.045h0a.323.323,0,0,1,0-.068h0a.877.877,0,0,1,.028-.131.124.124,0,0,1,0-.045v-.057l.068-.244.028-.068.034-.125c.028-.08.057-.165.091-.244a.668.668,0,0,1,.045-.114l.068-.159c.068-.159.148-.313.222-.466a4.679,4.679,0,0,1,.233-.415,9.916,9.916,0,0,1,.75-1.08Zm6.2,19.667h-.034a.7.7,0,0,1-.347,0h-.057a.723.723,0,0,1-.1-.034.8.8,0,0,1-.233-.142l-.085-.08a2.125,2.125,0,0,1-.409-.648,2.085,2.085,0,0,0-.125.665,1.063,1.063,0,0,0,.517.995,1.932,1.932,0,0,1,.54.534h0a.04.04,0,0,0,0-.034h0a.142.142,0,0,1,0-.045.138.138,0,0,1,0-.045,3.1,3.1,0,0,1,.244-.676l.119-.233.051-.074a.975.975,0,0,1,.074-.131l.051-.08.085-.136A1.012,1.012,0,0,1,443.689,349.155Zm-6.2-19.667-.739-1.626-.3.08.773,1.62L442.8,341.3c-.119.153-1.762,2.12-1.705,3.979a2.676,2.676,0,0,0,.142.847c.284.83.637,1.165.955,1.256v-.142a3.507,3.507,0,0,1,0-.568.3.3,0,0,1,0-.074v-.08h0a.124.124,0,0,0,0-.045h0a.142.142,0,0,1,0-.045h0a.323.323,0,0,1,0-.068h0a.877.877,0,0,1,.028-.131.124.124,0,0,1,0-.045v-.057l.068-.244.028-.068.034-.125c.028-.08.057-.165.091-.244a.668.668,0,0,1,.045-.114l.068-.159c.068-.159.148-.313.222-.466a4.679,4.679,0,0,1,.233-.415,9.916,9.916,0,0,1,.75-1.08Zm6.2,19.667h-.034a.7.7,0,0,1-.347,0h-.057a.723.723,0,0,1-.1-.034.8.8,0,0,1-.233-.142l-.085-.08a2.125,2.125,0,0,1-.409-.648,2.085,2.085,0,0,0-.125.665,1.063,1.063,0,0,0,.517.995,1.932,1.932,0,0,1,.54.534h0a.04.04,0,0,0,0-.034h0a.142.142,0,0,1,0-.045.138.138,0,0,1,0-.045,3.1,3.1,0,0,1,.244-.676l.119-.233.051-.074a.975.975,0,0,1,.074-.131l.051-.08.085-.136A1.012,1.012,0,0,1,443.689,349.155Zm-6.2-19.667-.739-1.626-.3.08.773,1.62L442.8,341.3c-.119.153-1.762,2.12-1.705,3.979a2.676,2.676,0,0,0,.142.847c.284.83.637,1.165.955,1.256v-.142a3.507,3.507,0,0,1,0-.568.3.3,0,0,1,0-.074v-.08h0a.124.124,0,0,0,0-.045h0a.142.142,0,0,1,0-.045h0a.323.323,0,0,1,0-.068h0a.877.877,0,0,1,.028-.131.124.124,0,0,1,0-.045v-.057l.068-.244.028-.068.034-.125c.028-.08.057-.165.091-.244a.668.668,0,0,1,.045-.114l.068-.159c.068-.159.148-.313.222-.466a4.679,4.679,0,0,1,.233-.415,9.916,9.916,0,0,1,.75-1.08Zm6.2,19.667h-.034a.7.7,0,0,1-.347,0h-.057a.723.723,0,0,1-.1-.034.8.8,0,0,1-.233-.142l-.085-.08a2.125,2.125,0,0,1-.409-.648,2.085,2.085,0,0,0-.125.665,1.063,1.063,0,0,0,.517.995,1.932,1.932,0,0,1,.54.534h0a.04.04,0,0,0,0-.034h0a.142.142,0,0,1,0-.045.138.138,0,0,1,0-.045,3.1,3.1,0,0,1,.244-.676l.119-.233.051-.074a.975.975,0,0,1,.074-.131l.051-.08.085-.136A1.012,1.012,0,0,1,443.689,349.155Zm-6.2-19.667-.739-1.626-.3.08.773,1.62L442.8,341.3c-.119.153-1.762,2.12-1.705,3.979a2.676,2.676,0,0,0,.142.847c.284.83.637,1.165.955,1.256v-.142a3.507,3.507,0,0,1,0-.568.3.3,0,0,1,0-.074v-.08h0a.124.124,0,0,0,0-.045h0a.142.142,0,0,1,0-.045h0a.323.323,0,0,1,0-.068h0a.877.877,0,0,1,.028-.131.124.124,0,0,1,0-.045v-.057l.068-.244.028-.068.034-.125c.028-.08.057-.165.091-.244a.668.668,0,0,1,.045-.114l.068-.159c.068-.159.148-.313.222-.466a4.679,4.679,0,0,1,.233-.415,9.916,9.916,0,0,1,.75-1.08Zm6.2,19.667h-.034a.7.7,0,0,1-.347,0h-.057a.723.723,0,0,1-.1-.034.8.8,0,0,1-.233-.142l-.085-.08a2.125,2.125,0,0,1-.409-.648,2.085,2.085,0,0,0-.125.665,1.063,1.063,0,0,0,.517.995,1.932,1.932,0,0,1,.54.534h0a.04.04,0,0,0,0-.034h0a.142.142,0,0,1,0-.045.138.138,0,0,1,0-.045,3.1,3.1,0,0,1,.244-.676l.119-.233.051-.074a.975.975,0,0,1,.074-.131l.051-.08.085-.136A1.012,1.012,0,0,1,443.689,349.155Zm-6.2-19.667-.739-1.626-.3.08.773,1.62L442.8,341.3c-.119.153-1.762,2.12-1.705,3.979a2.676,2.676,0,0,0,.142.847c.284.83.637,1.165.955,1.256v-.142a3.507,3.507,0,0,1,0-.568.3.3,0,0,1,0-.074v-.08h0a.124.124,0,0,0,0-.045h0a.142.142,0,0,1,0-.045h0a.323.323,0,0,1,0-.068h0a.877.877,0,0,1,.028-.131.124.124,0,0,1,0-.045v-.057l.068-.244.028-.068.034-.125c.028-.08.057-.165.091-.244a.668.668,0,0,1,.045-.114l.068-.159c.068-.159.148-.313.222-.466a4.679,4.679,0,0,1,.233-.415,9.916,9.916,0,0,1,.75-1.08Zm6.2,19.667h-.034a.7.7,0,0,1-.347,0h-.057a.723.723,0,0,1-.1-.034.8.8,0,0,1-.233-.142l-.085-.08a2.125,2.125,0,0,1-.409-.648,2.085,2.085,0,0,0-.125.665,1.063,1.063,0,0,0,.517.995,1.932,1.932,0,0,1,.54.534h0a.04.04,0,0,0,0-.034h0a.142.142,0,0,1,0-.045.138.138,0,0,1,0-.045,3.1,3.1,0,0,1,.244-.676l.119-.233.051-.074a.975.975,0,0,1,.074-.131l.051-.08.085-.136A1.012,1.012,0,0,1,443.689,349.155Zm-6.2-19.667-.739-1.626-.3.08.773,1.62L442.8,341.3c-.119.153-1.762,2.12-1.705,3.979a2.676,2.676,0,0,0,.142.847c.284.83.637,1.165.955,1.256v-.142a3.507,3.507,0,0,1,0-.568.3.3,0,0,1,0-.074v-.08h0a.124.124,0,0,0,0-.045h0v-.028a.142.142,0,0,1,0-.045h0a.327.327,0,0,1,0-.068h0a.885.885,0,0,1,.028-.131.124.124,0,0,1,0-.046V346.1l.068-.244.028-.068.034-.125c.028-.08.057-.165.091-.244a.674.674,0,0,1,.045-.114l.068-.159c.068-.159.148-.313.222-.466a4.679,4.679,0,0,1,.233-.415,9.917,9.917,0,0,1,.75-1.08Zm6.2,19.667h-.034a.7.7,0,0,1-.347,0h-.057a.364.364,0,0,1-.1-.034.8.8,0,0,1-.233-.142l-.085-.08a2.125,2.125,0,0,1-.409-.648,2.085,2.085,0,0,0-.125.665,1.063,1.063,0,0,0,.517.995,1.932,1.932,0,0,1,.54.534h0a.235.235,0,0,1,0-.091.138.138,0,0,1,0-.045,3.1,3.1,0,0,1,.244-.676l.119-.233.125-.2.051-.08.085-.136A1.014,1.014,0,0,1,443.689,349.155Zm-1.251-3.53c.028-.08.057-.165.091-.244s.028-.08.045-.114a.79.79,0,0,1,.068-.159c.068-.159.148-.313.222-.466a4.694,4.694,0,0,1,.233-.415,9.918,9.918,0,0,1,.75-1.08L437.521,329.5l-.767-1.643-.3.08.773,1.62L442.8,341.3c-.119.153-1.762,2.12-1.705,3.979a2.676,2.676,0,0,0,.142.847c.284.83.637,1.165.955,1.256v-.142a3.507,3.507,0,0,1,0-.568.352.352,0,0,1,0-.074s0-.051,0-.08a1.254,1.254,0,0,1,0-.142h0l.034-.171v-.142l.068-.244A1.122,1.122,0,0,0,442.438,345.625Zm85.553-79.676a4.809,4.809,0,0,0-2.706-1.734,4.059,4.059,0,0,0-3.109.716c.256-.279,1.665-1.813,2.842-3.331,1.4-1.779,2.507-3.541,1.137-3.251-2.643.568-7.526,6.474-7.526,6.474l-1,1.785h0l-2.9,5.178-.307.568a15.6,15.6,0,0,0-2.9.358l-.33.438a8.128,8.128,0,0,0-1.478,2.8c-.136,1.137-4.883,3.234-6.821,4.36s-3.763,4.786-3.763,4.786-6.417.568-8.231,2.274c-1.268,1.182-4.365,1.194-6.122,1.091h0l-.449-.028c-.5-.034-.813-.074-.813-.074s-1.813-1.972-3.206-2.115a13.938,13.938,0,0,0-2.649,0s-.733-.244-1.8-.568l-.3-.085c-.25-.068-.517-.142-.8-.21l-.216-.057a3.411,3.411,0,0,0,.29-.358,3.361,3.361,0,0,0,.381-.7h0a2.843,2.843,0,0,0,.176-1.489,4.286,4.286,0,0,0-.6-1.5c-.176-.279-.358-.568-.529-.836a13.115,13.115,0,0,1-1.751-4.945h0a13.449,13.449,0,0,1,1.285-8.151,19.5,19.5,0,0,1,1.137-1.893l.642-.9.4-.568.449-.631h0l.432-.608a15.957,15.957,0,0,0,1.643-2.871c.091-.2.159-.4.239-.608a.739.739,0,0,1,.063-.21c.023-.068.091-.279.125-.415s.045-.165.063-.25a3.156,3.156,0,0,0,.091-.387,1.4,1.4,0,0,1,.057-.267c.017-.085.046-.256.063-.381a.994.994,0,0,1,.04-.279l.034-.381a2.12,2.12,0,0,0,0-.267h0v-1.546a1.376,1.376,0,0,0-.04-.381c-.04-.131,0-.21-.04-.318a1.275,1.275,0,0,1-.045-.324l-.068-.33a1.35,1.35,0,0,0-.063-.3l-.085-.341a1.233,1.233,0,0,0-.074-.284c-.023-.091-.074-.233-.108-.341a2.615,2.615,0,0,0-.1-.273c-.04-.114-.074-.227-.125-.341s-.068-.165-.1-.244a10.429,10.429,0,0,0-1.194-2.109l-.83-1.035h0l-.222-.279a1.222,1.222,0,0,0-.08-.148c-.051-.1-.1-.193-.148-.3-.421-.83-.762-1.705-1.108-2.575-.1-.267-.21-.529-.318-.8,0-.057-.045-.114-.062-.171-.171-.409-.347-.807-.534-1.205-.142-.3-.3-.568-.449-.875-.051-.091-.1-.176-.148-.267l-.358-.568-.176-.284-.381-.568-.17-.244c-.182-.256-.364-.506-.568-.756h0c-.2-.261-.415-.517-.62-.773l-.171-.193-.495-.568-.193-.216-.517-.568-.176-.182c-.807-.836-1.66-1.643-2.529-2.433l-.449-.4h0l-1.58-1.4-.568-.472c-.165-.148-.347-.3-.517-.438a14.211,14.211,0,0,0-3.979-2.569,12.693,12.693,0,0,0-5.878-.6,20,20,0,0,0-8.958,3.132c-.216.136-.421.284-.631.438a16.627,16.627,0,0,0-3.189,2.973c-.159.188-.307.381-.455.568s-.25.347-.375.529a33.138,33.138,0,0,0-3.177,6.764c-3.087,8.18-6.219,16.626-6.656,25.283a2.269,2.269,0,0,1-.028.438q-.068,1.637,0,3.291h0a.43.43,0,0,0,0,.085,4.062,4.062,0,0,0,.034.642c.2,3.263.853,6.525,1.341,9.777l-.335.119c-3.979,1.512-4.718,4.547-4.718,4.547a.068.068,0,0,1,0,.028h0a4.853,4.853,0,0,1,.057.756,10.589,10.589,0,0,1-1.484,5.252l-.25.421h0a7.885,7.885,0,0,0-1.455,4.257,2.382,2.382,0,0,0,.193.944h0v.051a.682.682,0,0,0,0,.1v.051h0a11.368,11.368,0,0,1-2.018,3.581c-1.393,1.552-5.161,16.894-5.161,16.894a2.962,2.962,0,0,1,.25,1.228h0a2.4,2.4,0,0,1-.233.978h0a1.756,1.756,0,0,0,.2,1.575h0a5.911,5.911,0,0,0,.909,1.228s.841-.279-.568,1.268l-.085.1h0a1.631,1.631,0,0,0,.108,2.041,5.525,5.525,0,0,0,1.245,1.239s11.431,19.7,13.8,21.81,4.741,7.6,4.741,7.6.239-.381.631-.972c.182-.3.421-.642.665-1.017l.728.949h0l1.472,1.927-.568,1.108h0a25.9,25.9,0,0,0-1.518,3.411.845.845,0,0,0-.04.313,1.24,1.24,0,0,0,.375.807c-2.842,3.729-9.606,14.1-9.095,26.864h0v.432a34.242,34.242,0,0,0,3.308,12.858,27.5,27.5,0,0,1,.284,3.86h0a1.745,1.745,0,0,1-.148.762,4.075,4.075,0,0,0,.051,1.569h0c.375,2.8,1.631,8.271,1.631,8.271v2.882c.063,4.883.165,14.466-.04,16.541-.119,1.194-.239,2.154-.335,2.842-.136.978-.222,1.495-.222,1.495s-.051.358-.131,1.006c0,.233-.063.5-.1.807-.466,3.843-1.54,13.17-2.177,21.913,0,.381-.057.762-.08,1.137-.324,4.661-.5,9.095-.375,12.3v.483c.034.819.1,1.552.182,2.183.284,2.046.534,4.451.739,6.946a7.736,7.736,0,0,0,.074.807c.364,4.547.631,9.322.79,12.767v.671a.624.624,0,0,0,0,.148.212.212,0,0,0,0,.063c0,.2,0,.392,0,.568v1.745a8.886,8.886,0,0,0,.034.983,6.072,6.072,0,0,0,.034.722v.08h0a.1.1,0,0,1,0,.04v.068l.477,3.979,2.467,20.088.75,6.327,1.6,13.682,5.741-1.086.057.625.193,2.12h0l1.6-.153c0,.2-.028.409-.04.614-.273,4.752-.182,9.561-.182,9.561h.063c1.756.324,3.45.568,5.116.716v4.957h2.655l-.347-4.258-.045-.517h.051a56.09,56.09,0,0,0,10.6-.375l.318-.04.426.489,4.059,4.65a64.015,64.015,0,0,0,14.921-1.137c5.247-1.137,10.726-6.3,10.919-8.248h0c.068-.637-.443-.927-1.705-.614-3.752.921-10.152,0-13.364-.568-.711-1.637-2.757-6.338-4.348-10.084l-.244-.568c2.348-1.773,4.149-4.036,4.388-5.218.153-.7-.25-1.023-1.421-.62a16.39,16.39,0,0,1-4.3.7h-.568a.72.72,0,0,0,.074-.108,8.861,8.861,0,0,0,1.205-5.747,19.569,19.569,0,0,0-.273-2.183h0V535.6a25.946,25.946,0,0,0-.682-2.8.577.577,0,0,0-.051-.176c-.108-.324-.176-.506-.176-.506s1.586-11.1,2.1-19.036a43.926,43.926,0,0,0,.091-6.179h0a.075.075,0,0,0,0-.034,3.41,3.41,0,0,0-.375-1.489,3.081,3.081,0,0,1-.472-1.137.1.1,0,0,0,0-.04c-.7-3.149.881-9.663,1.705-11.368a14.59,14.59,0,0,0,.688-1.705,27.351,27.351,0,0,0,1.552-6.906,17.539,17.539,0,0,1,.836-4.5c2.586-3.717,3.325-8.9,3.5-12.449a34.18,34.18,0,0,0,0-4.024,155.681,155.681,0,0,1,.864-17.752c.125-1.137.273-2.274.438-3.445.256-1.785.568-3.558.932-5.264,1.1-5.116.637-14.284-.227-23.01,0-.256-.051-.506-.074-.756a.216.216,0,0,1,0-.057c-.864-8.47-2.086-16.371-2.586-19.508h0c-.154-.9-.239-1.415-.239-1.415a26.8,26.8,0,0,0,1-6.1h0a5.559,5.559,0,0,0-.517-2.734,2.507,2.507,0,0,1-.313-.836h0a.651.651,0,0,1,0-.108,13.643,13.643,0,0,1-.114-3.177h0a11.209,11.209,0,0,1,.091-1.137v-.114l.068-.682c.051-.4.091-.79.148-1.182a4.765,4.765,0,0,0,.483-.239,3.749,3.749,0,0,0,.756-.529c2.529-2.274,2.842-8.1,2.45-14.017a.216.216,0,0,1,0-.057v-.165a112.444,112.444,0,0,0-2.274-14.779h0a.983.983,0,0,0,0-.125c-.091-.307-.142-.506-.142-.506s0-4.161-.244-8.163a.28.28,0,0,1,0-.068q0-.051,0-.1c-.21-3.3-.568-6.435-1.279-7.009a4.371,4.371,0,0,1-.807-2.507v-.04a.568.568,0,0,1,0-.1,56.6,56.6,0,0,1,0-8.339,16.484,16.484,0,0,0,2.188-7.179h0a11.662,11.662,0,0,0-.04-1.37.706.706,0,0,0-.034-.267,3.526,3.526,0,0,0-.062-.438,7.9,7.9,0,0,0-.387-1.529q.716-.125,1.518-.324l.449-.114h0c7.446-1.91,19.122-7.389,21.464-8.191,3.212-1.137,4.184-5.769,4.184-5.769s.3-.25.784-.7a38.654,38.654,0,0,0,6.44-7.827h0a23.157,23.157,0,0,0,2.154-4.491h0a16.67,16.67,0,0,0,.654-2.444,7.708,7.708,0,0,0,.114-.813h0v-.1l.54-.483h0c2.5-2.274,6.1-5.877,7.065-8.589A2.924,2.924,0,0,0,527.991,265.95Zm-74.037,206.1c-.045,1.3-.136,2.507-.216,3.536h0c-.176,2.029-.364,3.365-.364,3.365a2.328,2.328,0,0,0-.4.438,5.579,5.579,0,0,0-.62,1.239l-.136-3.371S453.085,475.089,453.954,472.048ZM434.173,328.414c-.04-.131-.085-.256-.125-.387h0l.625-.125h0c.529-.1,1.04-.233,1.563-.381l.2.421.773,1.62,5.571,11.738c-.119.153-1.762,2.12-1.705,3.979a2.676,2.676,0,0,0,.142.847c.284.83.637,1.165.955,1.256h0a.944.944,0,0,0,.819-.193,4.771,4.771,0,0,0-.568,1.057h0a2.084,2.084,0,0,0-.125.665,1.063,1.063,0,0,0,.517.995,1.933,1.933,0,0,1,.54.534h0a2.455,2.455,0,0,1,.375,1.1h0v.04h0a2.984,2.984,0,0,1,0,.313c0,.068,0,.125,0,.182l-.745-.222-1.643-.489a2.012,2.012,0,0,1,.887-.637l-5.07-11.141s-1.074-4.8-2.478-9.538Zm11.368,224.322-.108-.568-.028-.171.222-.04a1.7,1.7,0,0,0,0,.176,2.564,2.564,0,0,0-.1.6Zm-8.049-223.248-.739-1.626-.3.08.773,1.62L442.8,341.3c-.119.153-1.762,2.12-1.705,3.979a2.676,2.676,0,0,0,.142.847c.284.83.637,1.165.955,1.256v-.142a3.507,3.507,0,0,1,0-.568.3.3,0,0,1,0-.074v-.08h0a.124.124,0,0,0,0-.045h0a.051.051,0,0,1,0-.028.145.145,0,0,1,0-.045h0a.327.327,0,0,1,0-.068h0a.492.492,0,0,0,0-.091v-.08h0V346.1l.068-.244.028-.068.034-.125c.028-.08.057-.165.091-.244s.028-.08.045-.114a.794.794,0,0,1,.068-.159c.068-.159.148-.313.222-.466a4.694,4.694,0,0,1,.233-.415,9.926,9.926,0,0,1,.75-1.08Zm6.2,19.667h-.034a.7.7,0,0,1-.347,0h-.057a.723.723,0,0,1-.1-.034.8.8,0,0,1-.233-.142l-.085-.08a2.125,2.125,0,0,1-.409-.648,2.085,2.085,0,0,0-.125.665,1.063,1.063,0,0,0,.517.995,1.932,1.932,0,0,1,.54.534h0a.235.235,0,0,1,0-.091.138.138,0,0,1,0-.045,3.1,3.1,0,0,1,.244-.676l.119-.233.051-.074a.97.97,0,0,1,.074-.131l.051-.08.085-.136A1.014,1.014,0,0,1,443.689,349.155Zm-6.2-19.667-.739-1.626-.3.08.773,1.62L442.8,341.3c-.119.153-1.762,2.12-1.705,3.979a2.676,2.676,0,0,0,.142.847c.284.83.637,1.165.955,1.256v-.142a3.507,3.507,0,0,1,0-.568.3.3,0,0,1,0-.074v-.08h0a.124.124,0,0,0,0-.045h0a.142.142,0,0,1,0-.045h0a.323.323,0,0,1,0-.068h0a.877.877,0,0,1,.028-.131.124.124,0,0,1,0-.045v-.057l.068-.244.028-.068.034-.125c.028-.08.057-.165.091-.244a.668.668,0,0,1,.045-.114l.068-.159c.068-.159.148-.313.222-.466a4.679,4.679,0,0,1,.233-.415,9.916,9.916,0,0,1,.75-1.08Zm6.2,19.667h-.034a.7.7,0,0,1-.347,0h-.057a.723.723,0,0,1-.1-.034.8.8,0,0,1-.233-.142l-.085-.08a2.125,2.125,0,0,1-.409-.648,2.085,2.085,0,0,0-.125.665,1.063,1.063,0,0,0,.517.995,1.932,1.932,0,0,1,.54.534h0a.04.04,0,0,0,0-.034h0a.142.142,0,0,1,0-.045.138.138,0,0,1,0-.045,3.1,3.1,0,0,1,.244-.676l.119-.233.051-.074a.975.975,0,0,1,.074-.131l.051-.08.085-.136A1.012,1.012,0,0,1,443.689,349.155Zm-6.2-19.667-.739-1.626-.3.08.773,1.62L442.8,341.3c-.119.153-1.762,2.12-1.705,3.979a2.676,2.676,0,0,0,.142.847c.284.83.637,1.165.955,1.256v-.142a3.507,3.507,0,0,1,0-.568.3.3,0,0,1,0-.074v-.08h0a.124.124,0,0,0,0-.045h0a.142.142,0,0,1,0-.045h0a.323.323,0,0,1,0-.068h0a.877.877,0,0,1,.028-.131.124.124,0,0,1,0-.045v-.057l.068-.244.028-.068.034-.125c.028-.08.057-.165.091-.244a.668.668,0,0,1,.045-.114l.068-.159c.068-.159.148-.313.222-.466a4.679,4.679,0,0,1,.233-.415,9.916,9.916,0,0,1,.75-1.08Zm6.2,19.667h-.034a.7.7,0,0,1-.347,0h-.057a.723.723,0,0,1-.1-.034.8.8,0,0,1-.233-.142l-.085-.08a2.125,2.125,0,0,1-.409-.648,2.085,2.085,0,0,0-.125.665,1.063,1.063,0,0,0,.517.995,1.932,1.932,0,0,1,.54.534h0a.04.04,0,0,0,0-.034h0a.142.142,0,0,1,0-.045.138.138,0,0,1,0-.045,3.1,3.1,0,0,1,.244-.676l.119-.233.051-.074a.975.975,0,0,1,.074-.131l.051-.08.085-.136A1.012,1.012,0,0,1,443.689,349.155Zm-6.2-19.667-.739-1.626-.3.08.773,1.62L442.8,341.3c-.119.153-1.762,2.12-1.705,3.979a2.676,2.676,0,0,0,.142.847c.284.83.637,1.165.955,1.256v-.142a3.507,3.507,0,0,1,0-.568.3.3,0,0,1,0-.074v-.08h0a.124.124,0,0,0,0-.045h0a.142.142,0,0,1,0-.045h0a.323.323,0,0,1,0-.068h0a.877.877,0,0,1,.028-.131.124.124,0,0,1,0-.045v-.057l.068-.244.028-.068.034-.125c.028-.08.057-.165.091-.244a.668.668,0,0,1,.045-.114l.068-.159c.068-.159.148-.313.222-.466a4.679,4.679,0,0,1,.233-.415,9.916,9.916,0,0,1,.75-1.08Zm6.2,19.667h-.034a.7.7,0,0,1-.347,0h-.057a.723.723,0,0,1-.1-.034.8.8,0,0,1-.233-.142l-.085-.08a2.125,2.125,0,0,1-.409-.648,2.085,2.085,0,0,0-.125.665,1.063,1.063,0,0,0,.517.995,1.932,1.932,0,0,1,.54.534h0a.04.04,0,0,0,0-.034h0a.142.142,0,0,1,0-.045.138.138,0,0,1,0-.045,3.1,3.1,0,0,1,.244-.676l.119-.233.051-.074a.975.975,0,0,1,.074-.131l.051-.08.085-.136A1.012,1.012,0,0,1,443.689,349.155Zm-6.2-19.667-.739-1.626-.3.08.773,1.62L442.8,341.3c-.119.153-1.762,2.12-1.705,3.979a2.676,2.676,0,0,0,.142.847c.284.83.637,1.165.955,1.256v-.142a3.507,3.507,0,0,1,0-.568.3.3,0,0,1,0-.074v-.08h0a.124.124,0,0,0,0-.045h0a.142.142,0,0,1,0-.045h0a.323.323,0,0,1,0-.068h0a.877.877,0,0,1,.028-.131.124.124,0,0,1,0-.045v-.057l.068-.244.028-.068.034-.125c.028-.08.057-.165.091-.244a.668.668,0,0,1,.045-.114l.068-.159c.068-.159.148-.313.222-.466a4.679,4.679,0,0,1,.233-.415,9.916,9.916,0,0,1,.75-1.08Zm6.2,19.667h-.034a.7.7,0,0,1-.347,0h-.057a.723.723,0,0,1-.1-.034.8.8,0,0,1-.233-.142l-.085-.08a2.125,2.125,0,0,1-.409-.648,2.085,2.085,0,0,0-.125.665,1.063,1.063,0,0,0,.517.995,1.932,1.932,0,0,1,.54.534h0a.04.04,0,0,0,0-.034h0a.142.142,0,0,1,0-.045.138.138,0,0,1,0-.045,3.1,3.1,0,0,1,.244-.676l.119-.233.051-.074a.975.975,0,0,1,.074-.131l.051-.08.085-.136A1.012,1.012,0,0,1,443.689,349.155Zm-6.2-19.667-.739-1.626-.3.08.773,1.62L442.8,341.3c-.119.153-1.762,2.12-1.705,3.979a2.676,2.676,0,0,0,.142.847c.284.83.637,1.165.955,1.256v-.142a3.507,3.507,0,0,1,0-.568.3.3,0,0,1,0-.074v-.08h0a.124.124,0,0,0,0-.045h0a.142.142,0,0,1,0-.045h0a.323.323,0,0,1,0-.068h0a.877.877,0,0,1,.028-.131.124.124,0,0,1,0-.045v-.057l.068-.244.028-.068.034-.125c.028-.08.057-.165.091-.244a.668.668,0,0,1,.045-.114l.068-.159c.068-.159.148-.313.222-.466a4.679,4.679,0,0,1,.233-.415,9.916,9.916,0,0,1,.75-1.08Zm6.2,19.667h-.034a.7.7,0,0,1-.347,0h-.057a.723.723,0,0,1-.1-.034.8.8,0,0,1-.233-.142l-.085-.08a2.125,2.125,0,0,1-.409-.648,2.085,2.085,0,0,0-.125.665,1.063,1.063,0,0,0,.517.995,1.932,1.932,0,0,1,.54.534h0a.04.04,0,0,0,0-.034h0a.142.142,0,0,1,0-.045.138.138,0,0,1,0-.045,3.1,3.1,0,0,1,.244-.676l.119-.233.051-.074a.975.975,0,0,1,.074-.131l.051-.08.085-.136A1.012,1.012,0,0,1,443.689,349.155Zm-6.2-19.667-.739-1.626-.3.08.773,1.62L442.8,341.3c-.119.153-1.762,2.12-1.705,3.979a2.676,2.676,0,0,0,.142.847c.284.83.637,1.165.955,1.256v-.142a3.507,3.507,0,0,1,0-.568.3.3,0,0,1,0-.074v-.08h0a.124.124,0,0,0,0-.045h0a.142.142,0,0,1,0-.045h0a.323.323,0,0,1,0-.068h0a.877.877,0,0,1,.028-.131.124.124,0,0,1,0-.045v-.057l.068-.244.028-.068.034-.125c.028-.08.057-.165.091-.244a.668.668,0,0,1,.045-.114l.068-.159c.068-.159.148-.313.222-.466a4.679,4.679,0,0,1,.233-.415,9.916,9.916,0,0,1,.75-1.08Zm6.2,19.667h-.034a.7.7,0,0,1-.347,0h-.057a.723.723,0,0,1-.1-.034.8.8,0,0,1-.233-.142l-.085-.08a2.125,2.125,0,0,1-.409-.648,2.085,2.085,0,0,0-.125.665,1.063,1.063,0,0,0,.517.995,1.932,1.932,0,0,1,.54.534h0a.04.04,0,0,0,0-.034h0a.142.142,0,0,1,0-.045.138.138,0,0,1,0-.045,3.1,3.1,0,0,1,.244-.676l.119-.233.051-.074a.975.975,0,0,1,.074-.131l.051-.08.085-.136A1.012,1.012,0,0,1,443.689,349.155Zm-6.2-19.667-.739-1.626-.3.08.773,1.62L442.8,341.3c-.119.153-1.762,2.12-1.705,3.979a2.676,2.676,0,0,0,.142.847c.284.83.637,1.165.955,1.256v-.142a3.507,3.507,0,0,1,0-.568.3.3,0,0,1,0-.074v-.08h0a.124.124,0,0,0,0-.045h0a.142.142,0,0,1,0-.045h0a.323.323,0,0,1,0-.068h0a.877.877,0,0,1,.028-.131.124.124,0,0,1,0-.045v-.057l.068-.244.028-.068.034-.125c.028-.08.057-.165.091-.244a.668.668,0,0,1,.045-.114l.068-.159c.068-.159.148-.313.222-.466a4.679,4.679,0,0,1,.233-.415,9.916,9.916,0,0,1,.75-1.08Zm6.2,19.667h-.034a.7.7,0,0,1-.347,0h-.057a.723.723,0,0,1-.1-.034.8.8,0,0,1-.233-.142l-.085-.08a2.125,2.125,0,0,1-.409-.648,2.085,2.085,0,0,0-.125.665,1.063,1.063,0,0,0,.517.995,1.932,1.932,0,0,1,.54.534h0a.04.04,0,0,0,0-.034h0a.142.142,0,0,1,0-.045.138.138,0,0,1,0-.045,3.1,3.1,0,0,1,.244-.676l.119-.233.051-.074a.975.975,0,0,1,.074-.131l.051-.08.085-.136A1.012,1.012,0,0,1,443.689,349.155Zm-6.2-19.667-.739-1.626-.3.08.773,1.62L442.8,341.3c-.119.153-1.762,2.12-1.705,3.979a2.676,2.676,0,0,0,.142.847c.284.83.637,1.165.955,1.256v-.142a3.507,3.507,0,0,1,0-.568.3.3,0,0,1,0-.074v-.08h0a.124.124,0,0,0,0-.045h0a.142.142,0,0,1,0-.045h0a.323.323,0,0,1,0-.068h0a.877.877,0,0,1,.028-.131.124.124,0,0,1,0-.045v-.057l.068-.244.028-.068.034-.125c.028-.08.057-.165.091-.244a.668.668,0,0,1,.045-.114l.068-.159c.068-.159.148-.313.222-.466a4.679,4.679,0,0,1,.233-.415,9.916,9.916,0,0,1,.75-1.08Zm6.2,19.667h-.034a.7.7,0,0,1-.347,0h-.057a.723.723,0,0,1-.1-.034.8.8,0,0,1-.233-.142l-.085-.08a2.125,2.125,0,0,1-.409-.648,2.085,2.085,0,0,0-.125.665,1.063,1.063,0,0,0,.517.995,1.932,1.932,0,0,1,.54.534h0a.04.04,0,0,0,0-.034h0a.167.167,0,0,1,0-.051.1.1,0,0,1,0-.04,3.1,3.1,0,0,1,.244-.676c.057-.108.108-.21.171-.307a.97.97,0,0,1,.074-.131l.051-.08.085-.136A1.011,1.011,0,0,1,443.689,349.155Zm-6.2-19.667-.739-1.626-.3.08.773,1.62L442.8,341.3c-.119.153-1.762,2.12-1.705,3.979a2.676,2.676,0,0,0,.142.847c.284.83.637,1.165.955,1.256v-.142a3.507,3.507,0,0,1,0-.568.3.3,0,0,1,0-.074v-.08h0a.124.124,0,0,0,0-.045h0v-.028a.142.142,0,0,1,0-.045h0a.327.327,0,0,1,0-.068h0a.885.885,0,0,1,.028-.131.124.124,0,0,1,0-.046V346.1l.068-.244.028-.068.034-.125c.028-.08.057-.165.091-.244a.674.674,0,0,1,.045-.114l.068-.159c.068-.159.148-.313.222-.466a4.679,4.679,0,0,1,.233-.415,9.917,9.917,0,0,1,.75-1.08Zm6.2,19.667h-.034a.7.7,0,0,1-.347,0h-.057a.723.723,0,0,1-.1-.034.8.8,0,0,1-.233-.142l-.085-.08a2.125,2.125,0,0,1-.409-.648,2.085,2.085,0,0,0-.125.665,1.063,1.063,0,0,0,.517.995,1.932,1.932,0,0,1,.54.534h0a.04.04,0,0,0,0-.034h0a.167.167,0,0,1,0-.051.1.1,0,0,1,0-.04,3.1,3.1,0,0,1,.244-.676c.057-.108.108-.21.171-.307a.97.97,0,0,1,.074-.131l.051-.08.085-.136A1.011,1.011,0,0,1,443.689,349.155Z" transform="translate(-186.13 -116.449)" fill="url(#linear-gradient-24)"/>
  <path id="Path_1256" data-name="Path 1256" d="M486.131,783.44s8.526,1.046,12.636-.375-1.273,6.111-6.861,7.9a53.363,53.363,0,0,1-12.13,2.058l-6.571-6.179-6.975.534,1.216,6.821-2.166.2-.841-8.947Z" transform="translate(-206.745 -355.799)" fill="#444053"/>
  <path id="Path_1257" data-name="Path 1257" d="M486.131,783.44s8.526,1.046,12.636-.375-1.273,6.111-6.861,7.9a53.363,53.363,0,0,1-12.13,2.058l-6.571-6.179-6.975.534,1.216,6.821-2.166.2-.841-8.947Z" transform="translate(-206.745 -355.799)" opacity="0.1"/>
  <path id="Path_1258" data-name="Path 1258" d="M504.047,811.34s10.2,2.234,15.347.978-2.234,7.27-9.226,8.8a65.825,65.825,0,0,1-14.961,1.137l-7.236-8.271-8.526-.142.7,8.441H477.49V811.34Z" transform="translate(-212.378 -368.078)" fill="#444053"/>
  <path id="Path_1259" data-name="Path 1259" d="M504.047,811.34s10.2,2.234,15.347.978-2.234,7.27-9.226,8.8a65.825,65.825,0,0,1-14.961,1.137l-7.236-8.271-8.526-.142.7,8.441H477.49V811.34Z" transform="translate(-212.378 -368.078)" opacity="0.1"/>
  <path id="Path_1260" data-name="Path 1260" d="M449.959,469.75s-17.473,19.429-6.992,41.375c0,0,.568,3.916.142,4.616s1.677,9.783,1.677,9.783.284,16.484,0,19.292-.568,4.331-.568,4.331-3.905,30.45-2.649,39.545,1.819,25.3,1.819,25.3l5.173,43.615,26.841-5.031-12.164-59.832-.421-10.624s5.036-13,2.8-19.571.568-90.305.568-90.305Z" transform="translate(-196.033 -220.656)" fill="#303d5c"/>
  <path id="Path_1261" data-name="Path 1261" d="M449.959,469.75s-17.473,19.429-6.992,41.375c0,0,.568,3.916.142,4.616s1.677,9.783,1.677,9.783.284,16.484,0,19.292-.568,4.331-.568,4.331-3.905,30.45-2.649,39.545,1.819,25.3,1.819,25.3l5.173,43.615,26.841-5.031-12.164-59.832-.421-10.624s5.036-13,2.8-19.571.568-90.305.568-90.305Z" transform="translate(-196.033 -220.656)" opacity="0.05"/>
  <path id="Path_1262" data-name="Path 1262" d="M467.594,564.243c3.075,5.872,1.137,20.128,1.137,20.128-4.053,3.5-1.819,33.969-1.819,33.969s-2.8,30.058-4.61,33.537-1.54,17.894-1.54,17.894c20.548,3.774,33.969-4.331,33.969-4.331s-6.571-14.961-6.707-15.654c-.08-.392-.949.671-1.211.978.136-.188.495-.676,1.211-1.705,2.8-3.916,0-11.465,0-11.465s3.5-24.323,1.819-26.562.279-10.482,1.256-12.437a27.547,27.547,0,0,0,2.234-8.526,17.212,17.212,0,0,1,.841-4.468c4.331-6.156,3.5-16.359,3.5-16.359s-.279-14.677,2.234-26.278-3.138-44.456-3.138-44.456,1.881-6.429.483-8.8c-.631-1.069-.568-3.587-.273-6.025.341-2.984.972-5.855.972-5.855l-38.135-6.77c-.8,1.336-1.535,2.632-2.211,3.877-12.613,23.305-4.11,31.968-4.11,31.968l8.094,24.948S464.508,558.377,467.594,564.243Z" transform="translate(-200.81 -221.217)" fill="#303d5c"/>
  <path id="Path_1263" data-name="Path 1263" d="M586.92,301.841l5.451,4.627s1.069-.853,2.5-2.132c3.411-3.081,8.936-8.657,6.867-11.022-2.842-3.229-5.684-1.137-5.86-.989.307-.324,6.633-7.105,4.041-6.56s-7.549,6.435-7.549,6.435l-3.916,6.918Z" transform="translate(-259.605 -141.239)" fill="#efb7b9"/>
  <path id="Path_1264" data-name="Path 1264" d="M444.133,415.35l6.429,1.955-4.888,8.526-5.593-7.27Z" transform="translate(-189.928 -179.256)" fill="#efb7b9"/>
  <circle id="Ellipse_93" data-name="Ellipse 93" cx="18.315" cy="18.315" r="18.315" transform="translate(250.987 119.363)" fill="#efb7b9"/>
  <path id="Path_1265" data-name="Path 1265" d="M476.52,281.549s-16.638,26.4-.841,28.677-21.248,18.315-21.248,18.315L440.59,314.563s14.4-24.886,12.164-34.39S476.52,281.549,476.52,281.549Z" transform="translate(-196.452 -137.158)" fill="#efb7b9"/>
  <path id="Path_1266" data-name="Path 1266" d="M462.82,475a86.565,86.565,0,0,0,11.272,2.609s20.6,9.146,28.1,6.139c.341-2.984.972-5.855.972-5.855l-38.135-6.77C464.23,472.456,463.491,473.752,462.82,475Z" transform="translate(-206.046 -221.247)" opacity="0.1"/>
  <path id="Path_1267" data-name="Path 1267" d="M429.371,343.474l3.723,7.7,4.206,8.674.568,1.239,4.985,10.8,6.338,13.688s-2.24,2.655-1.54,4.752c.654,1.961,1.677,1.108,1.808.989-.119.165-1.472,1.984-.267,2.785s.836,2.655.836,2.655-5.173,8.526-6.15,11.6,15.66,5.735,15.66,5.735,23.624,10.482,29.5,5.309,0-29.5,0-29.5,0-13.978-1.54-15.234-.807-10.948-.807-10.948c4.053-7.389,1.256-11.6,1.256-11.6l1.137-19.008s-1.819-1.961-3.217-2.1a13.98,13.98,0,0,0-2.655,0s-.739-.25-1.8-.568c-2.24-.637-5.957-1.518-7.287-.853-1.955.978-14.535-1.54-14.535-1.54a153.874,153.874,0,0,0-16.359-1.535,16.189,16.189,0,0,0-5.548.6c-4.547,1.4-5.355,4.707-5.355,4.707s.568,2.8-1.677,6.429S429.371,343.474,429.371,343.474Z" transform="translate(-191.52 -158.828)" fill="#3142b5"/>
  <path id="Path_1268" data-name="Path 1268" d="M586.92,311.992l5.451,4.627s1.069-.853,2.5-2.132c.432-4.718-3.587-5.343-6.417-5.218Z" transform="translate(-259.605 -151.39)" opacity="0.1"/>
  <path id="Path_1269" data-name="Path 1269" d="M527.846,325.981l2.376.142s5.588.693,7.39-.983,8.248-2.234,8.248-2.234,1.819-3.638,3.774-4.752,6.713-3.217,6.821-4.337,1.819-3.212,1.819-3.212,10.482-2.518,8.947,5.73-10.021,15.37-10.021,15.37-.978,4.616-4.195,5.735-24.044,10.9-27.4,8.384S527.846,325.981,527.846,325.981Z" transform="translate(-232.681 -151.816)" fill="#6c63ff"/>
  <path id="Path_1270" data-name="Path 1270" d="M430.635,338.33c2.234-3.632,1.677-6.429,1.677-6.429s.807-3.3,5.355-4.707a13.83,13.83,0,0,1,2.723-.534c-4.479,1.421-5.281,4.684-5.281,4.684s.568,2.8-1.677,6.429-1.262,5.173-1.262,5.173l3.729,7.7,4.2,8.668.6,1.245,4.985,10.772,6.338,13.688s-2.24,2.66-1.54,4.758c.654,1.961,1.677,1.1,1.808.989-.119.159-1.472,1.984-.267,2.785s.836,2.655.836,2.655-5.173,8.526-6.15,11.6,15.66,5.73,15.66,5.73,16.4,7.281,25.272,6.713c-7.537,2.956-28.069-6.15-28.069-6.15s-16.638-2.66-15.66-5.735,6.15-11.6,6.15-11.6.421-1.819-.836-2.655.148-2.62.267-2.785c-.131.119-1.137.972-1.808-.989-.7-2.1,1.54-4.752,1.54-4.752L442.89,371.9,437.9,361.1l-.568-1.239-4.206-8.674-3.723-7.7S428.4,341.968,430.635,338.33Z" transform="translate(-191.528 -158.901)" opacity="0.1"/>
  <path id="Path_1271" data-name="Path 1271" d="M426.484,352.68l-2.512,2.1a11.544,11.544,0,0,1-2.1,3.774c-1.4,1.54-5.173,16.774-5.173,16.774a2.717,2.717,0,0,1,0,2.24c-.568,1.137,1.137,2.8,1.137,2.8s.836-.279-.568,1.256,1.262,3.365,1.262,3.365,11.459,19.559,13.835,21.657,4.752,7.549,4.752,7.549,4.979-7.81,6.15-7.958l-4.888-11.039s-3.359-15.382-5.872-18.19,1.256-12.448,1.256-12.448Z" transform="translate(-186.093 -170.131)" fill="#6c63ff"/>
  <path id="Path_1272" data-name="Path 1272" d="M429.768,369.916c2.1,2.524,5.792,3.058,9.055,2.689.477-.057.961-.131,1.432-.222a20.847,20.847,0,0,0,2.12-.495,22.1,22.1,0,0,0,6.946-3.41,4.775,4.775,0,0,1,1.557-.9c1.307-.33,2.6.642,3.314,1.779s1.046,2.478,1.773,3.6c1.432,2.234,4.206,3.308,6.867,3.371a24.476,24.476,0,0,0,7.776-1.523c-2.052-2.524-4.155-5.15-4.991-8.293a19.639,19.639,0,0,1-.392-6.253c.6-9.891,4.036-20.315,12.1-26.079,1.4-.995,3.087-2.171,3.553-3.683-2.24-.637-5.957-1.518-7.287-.853-1.955.978-14.535-1.54-14.535-1.54a153.867,153.867,0,0,0-16.359-1.535,16.189,16.189,0,0,0-5.548.6c.688,4.2,1.285,8.379.46,12.505a28.008,28.008,0,0,1-2.768,7.361c-.716,1.393-1.489,2.763-2.274,4.138-2.126,3.826-4.155,7.662-4.547,11.937A9.553,9.553,0,0,0,429.768,369.916Z" transform="translate(-191.014 -158.85)" opacity="0.1"/>
  <path id="Path_1273" data-name="Path 1273" d="M475.4,437.047a9.875,9.875,0,0,0-3.274-.284,6.025,6.025,0,0,0-2.45,1.427l7.185.04c1.847,0,4.633.114,6.048-1.194C481.617,435.751,477.251,437.286,475.4,437.047Z" transform="translate(-209.007 -206.313)" opacity="0.1"/>
  <path id="Path_1274" data-name="Path 1274" d="M481.916,254.13a10.851,10.851,0,0,1,1.245,10.527c-1.137,2.7-3.371,4.815-4.729,7.418a13.369,13.369,0,0,0,.455,12.949,6.537,6.537,0,0,1,1.137,2.325c.324,2.132-1.881,3.661-3.638,4.917-8.072,5.752-11.5,16.183-12.1,26.079a19.611,19.611,0,0,0,.386,6.253c.836,3.143,2.944,5.77,5,8.293a24.478,24.478,0,0,1-7.782,1.523,8.3,8.3,0,0,1-6.867-3.371c-.728-1.137-1.069-2.467-1.773-3.6s-2.007-2.1-3.3-1.779a4.615,4.615,0,0,0-1.563.892,22.117,22.117,0,0,1-10.5,4.132c-3.263.375-6.952-.165-9.049-2.689a9.271,9.271,0,0,1-1.705-6.759c.728-8.464,7.9-15.12,9.555-23.453,1.341-6.753-1.091-13.642-1.535-20.5-.665-10.158,3.024-20.043,6.656-29.558a31.373,31.373,0,0,1,3.183-6.719,18.8,18.8,0,0,1,13.642-7.662,12.772,12.772,0,0,1,5.895.568,17.894,17.894,0,0,1,5.053,3.462c3.467,3.007,7.031,6.139,9.026,10.277.813,1.705,1.347,3.507,2.274,5.15Z" transform="translate(-190.616 -118.578)" fill="#3f3d56"/>
  <g id="Group_1302" data-name="Group 1302" transform="translate(237.504 122.319)" opacity="0.1">
    <path id="Path_1275" data-name="Path 1275" d="M513.833,256.241c-.909-1.643-1.438-3.462-2.274-5.15a20.641,20.641,0,0,0-2.9-4.371,24.54,24.54,0,0,1,5.116,6.759c.79,1.637,1.319,3.411,2.177,5.008l-1.1-.932a9.3,9.3,0,0,1,.773,1.211A12.506,12.506,0,0,1,513.833,256.241Z" transform="translate(-463.334 -246.72)"/>
    <path id="Path_1276" data-name="Path 1276" d="M436.423,396.56a22.026,22.026,0,0,0,10.5-4.127,4.731,4.731,0,0,1,1.563-.892c1.3-.33,2.6.642,3.308,1.779.148.239.279.495.4.75a2.274,2.274,0,0,0-1.472-.142,4.615,4.615,0,0,0-1.563.892,22.117,22.117,0,0,1-10.5,4.132c-3.263.375-6.952-.165-9.049-2.689a7.047,7.047,0,0,1-.693-1.04A11.658,11.658,0,0,0,436.423,396.56Z" transform="translate(-428.92 -309.193)"/>
    <path id="Path_1277" data-name="Path 1277" d="M480.65,346.963a24.507,24.507,0,0,0,7.776-1.523c-2.052-2.524-4.155-5.15-4.991-8.293a19.617,19.617,0,0,1-.392-6.253c.6-9.9,4.036-20.327,12.107-26.079,1.756-1.256,3.979-2.785,3.638-4.923a6.657,6.657,0,0,0-1.137-2.319,13.369,13.369,0,0,1-.46-12.949c1.364-2.6,3.581-4.718,4.735-7.424a10.891,10.891,0,0,0-.477-9.311,13.042,13.042,0,0,0,1.228,1.137,12.492,12.492,0,0,0,1.012,1.239,10.885,10.885,0,0,1,.472,9.316c-1.137,2.7-3.371,4.815-4.729,7.418a13.369,13.369,0,0,0,.455,12.949,6.537,6.537,0,0,1,1.137,2.325c.324,2.132-1.881,3.661-3.638,4.917-8.072,5.752-11.5,16.183-12.1,26.079a19.609,19.609,0,0,0,.387,6.253c.836,3.143,2.944,5.77,5,8.293a24.477,24.477,0,0,1-7.782,1.523,8.3,8.3,0,0,1-6.867-3.371c-.1-.148-.182-.3-.267-.455A9.533,9.533,0,0,0,480.65,346.963Z" transform="translate(-449.131 -255.856)"/>
  </g>
  <path id="Path_1278" data-name="Path 1278" d="M297.019,179.57v11.937H245.19q2.37-3.285,4.843-6.48c.227-.3.455-.568.693-.881l2.427-3.052h0l.335-.415h0l.881-1.074Z" transform="translate(-112.122 -95.421)" fill="#6c63ff" opacity="0.2"/>
  <rect id="Rectangle_132" data-name="Rectangle 132" width="54.461" height="11.926" transform="translate(237.675 84.149)" fill="#6c63ff" opacity="0.2"/>
  <rect id="Rectangle_133" data-name="Rectangle 133" width="54.461" height="11.926" transform="translate(362.756 84.149)" fill="#6c63ff" opacity="0.2"/>
  <rect id="Rectangle_134" data-name="Rectangle 134" width="54.461" height="11.926" transform="translate(468.545 84.149)" fill="#6c63ff" opacity="0.2"/>
</svg>
